<?xml version="1.0" encoding="UTF-8" standalone="no"?>
<svg width="2667px" height="1251px" viewBox="0 0 2667 1251" version="1.1" xmlns="http://www.w3.org/2000/svg" xmlns:xlink="http://www.w3.org/1999/xlink" xmlns:sketch="http://www.bohemiancoding.com/sketch/ns">
    <!-- Generator: Sketch 3.3.3 (12072) - http://www.bohemiancoding.com/sketch -->
    <title>Artboard 1</title>
    <desc>Created with Sketch.</desc>
    <defs></defs>
    <g id="Page-1" stroke="none" stroke-width="1" fill="none" fill-rule="evenodd" sketch:type="MSPage">
        <g id="formidangles-grayscale-01" sketch:type="MSLayerGroup" transform="translate(-140.000000, -125.000000)">
            <g id="high_contrast" sketch:type="MSShapeGroup">
                <g id="Group">
                    <g transform="translate(0.000000, 34.000000)" id="Shape">
                        <path d="M111.5,1 L262,57.8 L106.6,135.5 L111.5,1 L111.5,1 Z" fill="#DDDDDD"></path>
                        <path d="M217.2,212.3 L174,322.7 L81.8,276.6 L217.2,212.3 L217.2,212.3 Z" fill="#CACACA"></path>
                        <path d="M217.2,212.3 L399,246.9 L174,322.7 L217.2,212.3 L217.2,212.3 Z" fill="#D7D7D7"></path>
                        <path d="M217.2,212.3 L262,57.8 L399,246.8 L217.2,212.3 L217.2,212.3 Z" fill="#F2F2F2"></path>
                        <path d="M217.2,212.3 L106.6,135.5 L262,57.8 L217.2,212.3 L217.2,212.3 Z" fill="#E2E2E2"></path>
                        <path d="M217.2,212.3 L81.8,276.6 L106.6,135.5 L217.2,212.3 L217.2,212.3 Z" fill="#CFCFCF"></path>
                        <path d="M111.5,423.5 L217,502.9 L86.5,568.1 L111.5,423.5 L111.5,423.5 Z" fill="#DBDBDB"></path>
                        <path d="M111.5,423.5 L174,322.7 L217,502.8 L111.5,423.5 L111.5,423.5 Z" fill="#EBEBEB"></path>
                        <path d="M111.5,423.5 L81.7,276.6 L174,322.7 L111.5,423.5 L111.5,423.5 Z" fill="#E6E6E6"></path>
                        <path d="M217.2,634.8 L255.3,511.7 L259.3,668.6 L217.2,634.8 L217.2,634.8 Z" fill="#E7E7E7"></path>
                        <path d="M217.2,634.8 L217,502.8 L255.3,511.7 L217.2,634.8 L217.2,634.8 Z" fill="#E2E2E2"></path>
                        <path d="M217.2,634.8 L86.6,568.1 L217,502.9 L217.2,634.8 L217.2,634.8 Z" fill="#DDDDDD"></path>
                        <path d="M217.2,634.8 L0.2,617.9 L86.5,568.1 L217.2,634.8 L217.2,634.8 Z" fill="#CBCBCB"></path>
                        <path d="M422.7,63.3 L398.9,246.8 L261.9,57.8 L422.7,63.3 L422.7,63.3 Z" fill="#C7C7C7"></path>
                        <path d="M422.7,63.3 L426.5,259.5 L398.9,246.8 L422.7,63.3 L422.7,63.3 Z" fill="#DBDBDB"></path>
                        <path d="M422.7,63.3 L453.4,251.1 L426.5,259.4 L422.7,63.3 L422.7,63.3 Z" fill="#DDDDDD"></path>
                        <path d="M422.7,63.3 L534.7,132.7 L453.4,251.1 L422.7,63.3 L422.7,63.3 Z" fill="#E1E1E1"></path>
                        <path d="M422.7,63.3 L460.9,0.9 L534.7,132.7 L422.7,63.3 L422.7,63.3 Z" fill="#EBEBEB"></path>
                        <path d="M275.3,384.4 L217,502.9 L174,322.7 L275.3,384.4 L275.3,384.4 Z" fill="#CFCFCF"></path>
                        <path d="M275.3,384.4 L255.3,511.7 L217,502.9 L275.3,384.4 L275.3,384.4 Z" fill="#D5D5D5"></path>
                        <path d="M275.3,384.4 L393,481.7 L255.3,511.7 L275.3,384.4 L275.3,384.4 Z" fill="#DBDBDB"></path>
                        <path d="M275.3,384.4 L426.5,259.4 L392.9,481.6 L275.3,384.4 L275.3,384.4 Z" fill="#EBEBEB"></path>
                        <path d="M275.3,384.4 L399,246.8 L426.6,259.5 L275.3,384.4 L275.3,384.4 Z" fill="#EFEFEF"></path>
                        <path d="M275.3,384.4 L174,322.7 L399,246.8 L275.3,384.4 L275.3,384.4 Z" fill="#EDEDED"></path>
                        <path d="M326.4,619.2 L259.3,668.7 L255.3,511.8 L326.4,619.2 L326.4,619.2 Z" fill="#D2D2D2"></path>
                        <path d="M326.4,619.2 L485.4,580 L392.9,655.9 L326.4,619.2 L326.4,619.2 Z" fill="#EAEAEA"></path>
                        <path d="M326.4,619.2 L392.9,481.8 L485.4,580 L326.4,619.2 L326.4,619.2 Z" fill="#F0F0F0"></path>
                        <path d="M326.4,619.2 L255.2,511.8 L392.9,481.8 L326.4,619.2 L326.4,619.2 Z" fill="#E6E6E6"></path>
                        <path d="M534.1,1 L534.7,132.8 L460.9,1 L534.1,1 L534.1,1 Z" fill="#D2D2D2"></path>
                        <path d="M534.1,1 L646.8,76.7 L534.7,132.7 L534.1,1 L534.1,1 Z" fill="#DDDDDD"></path>
                        <path d="M639.7,212.3 L600.6,324.8 L453.4,251.2 L639.7,212.3 L639.7,212.3 Z" fill="#C1C1C1"></path>
                        <path d="M639.7,212.3 L713.4,288.6 L600.7,324.8 L639.7,212.3 L639.7,212.3 Z" fill="#D7D7D7"></path>
                        <path d="M639.7,212.3 L646.8,76.7 L713.4,288.6 L639.7,212.3 L639.7,212.3 Z" fill="#E7E7E7"></path>
                        <path d="M639.7,212.3 L534.7,132.8 L646.8,76.7 L639.7,212.3 L639.7,212.3 Z" fill="#E0E0E0"></path>
                        <path d="M639.7,212.3 L453.4,251.2 L534.7,132.7 L639.7,212.3 L639.7,212.3 Z" fill="#CFCFCF"></path>
                        <path d="M534.1,423.5 L485.4,579.9 L392.9,481.7 L534.1,423.5 L534.1,423.5 Z" fill="#CACACA"></path>
                        <path d="M534.1,423.5 L633.9,505.7 L485.4,579.9 L534.1,423.5 L534.1,423.5 Z" fill="#D6D6D6"></path>
                        <path d="M534.1,423.5 L600.7,324.7 L633.9,505.6 L534.1,423.5 L534.1,423.5 Z" fill="#EAEAEA"></path>
                        <path d="M534.1,423.5 L453.4,251.1 L600.6,324.7 L534.1,423.5 L534.1,423.5 Z" fill="#E6E6E6"></path>
                        <path d="M534.1,423.5 L426.5,259.5 L453.4,251.2 L534.1,423.5 L534.1,423.5 Z" fill="#D1D1D1"></path>
                        <path d="M534.1,423.5 L392.9,481.7 L426.5,259.5 L534.1,423.5 L534.1,423.5 Z" fill="#CFCFCF"></path>
                        <path d="M570,627.5 L655,510.8 L641.6,674.4 L570,627.5 L570,627.5 Z" fill="#E6E6E6"></path>
                        <path d="M570,627.5 L633.9,505.7 L655,510.8 L570,627.5 L570,627.5 Z" fill="#D0D0D0"></path>
                        <path d="M570,627.5 L485.5,579.9 L634,505.7 L570,627.5 L570,627.5 Z" fill="#DCDCDC"></path>
                        <path d="M570,627.5 L393,655.9 L485.5,580 L570,627.5 L570,627.5 Z" fill="#C7C7C7"></path>
                        <path d="M730.2,183.8 L713.4,288.5 L646.8,76.7 L730.2,183.8 L730.2,183.8 Z" fill="#D1D1D1"></path>
                        <path d="M730.2,183.8 L839,307.8 L713.4,288.5 L730.2,183.8 L730.2,183.8 Z" fill="#DBDBDB"></path>
                        <path d="M730.2,183.8 L891.1,258.7 L839.1,307.9 L730.2,183.8 L730.2,183.8 Z" fill="#EBEBEB"></path>
                        <path d="M730.2,183.8 L899.4,161.6 L891.1,258.6 L730.2,183.8 L730.2,183.8 Z" fill="#F0F0F0"></path>
                        <path d="M730.2,183.8 L809.5,50.3 L899.4,161.6 L730.2,183.8 L730.2,183.8 Z" fill="#F1F1F1"></path>
                        <path d="M730.2,183.8 L651,72.2 L809.5,50.3 L730.2,183.8 L730.2,183.8 Z" fill="#E7E7E7"></path>
                        <path d="M730.2,183.8 L646.8,76.7 L650.9,72.3 L730.2,183.8 L730.2,183.8 Z" fill="#D2D2D2"></path>
                        <path d="M698,393.4 L633.9,505.7 L600.7,324.8 L698,393.4 L698,393.4 Z" fill="#D0D0D0"></path>
                        <path d="M698,393.4 L655,510.8 L633.9,505.7 L698,393.4 L698,393.4 Z" fill="#C1C1C1"></path>
                        <path d="M698,393.4 L825,428.8 L655,510.8 L698,393.4 L698,393.4 Z" fill="#D7D7D7"></path>
                        <path d="M698,393.4 L839,307.8 L824.9,428.8 L698,393.4 L698,393.4 Z" fill="#EDEDED"></path>
                        <path d="M698,393.4 L713.4,288.5 L839,307.8 L698,393.4 L698,393.4 Z" fill="#EEEEEE"></path>
                        <path d="M698,393.4 L600.7,324.7 L713.4,288.5 L698,393.4 L698,393.4 Z" fill="#E0E0E0"></path>
                        <path d="M773.6,550.3 L641.6,674.4 L655,510.8 L773.6,550.3 L773.6,550.3 Z" fill="#EFEFEF"></path>
                        <path d="M773.6,550.3 L924,571.9 L848.8,636.6 L773.6,550.3 L773.6,550.3 Z" fill="#EAEAEA"></path>
                        <path d="M773.6,550.3 L825,428.9 L924,572 L773.6,550.3 L773.6,550.3 Z" fill="#EFEFEF"></path>
                        <path d="M773.6,550.3 L655,510.8 L825,428.9 L773.6,550.3 L773.6,550.3 Z" fill="#E4E4E4"></path>
                        <path d="M956.7,1 L899.4,161.7 L809.5,50.3 L956.7,1 L956.7,1 Z" fill="#C8C8C8"></path>
                        <path d="M956.7,1 L1055.4,83.7 L899.4,161.7 L956.7,1 L956.7,1 Z" fill="#D6D6D6"></path>
                        <path d="M1062.3,212.3 L990.6,308.5 L891,258.7 L1062.3,212.3 L1062.3,212.3 Z" fill="#C6C6C6"></path>
                        <path d="M1062.3,212.3 L1130.2,230.4 L990.6,308.5 L1062.3,212.3 L1062.3,212.3 Z" fill="#D2D2D2"></path>
                        <path d="M1062.3,212.3 L1119.1,81.9 L1130.2,230.4 L1062.3,212.3 L1062.3,212.3 Z" fill="#E6E6E6"></path>
                        <path d="M1062.3,212.3 L1055.4,83.7 L1119.2,81.8 L1062.3,212.3 L1062.3,212.3 Z" fill="#E4E4E4"></path>
                        <path d="M1062.3,212.3 L899.4,161.7 L1055.4,83.7 L1062.3,212.3 L1062.3,212.3 Z" fill="#DCDCDC"></path>
                        <path d="M1062.3,212.3 L891,258.7 L899.3,161.7 L1062.3,212.3 L1062.3,212.3 Z" fill="#C7C7C7"></path>
                        <path d="M956.7,423.5 L924,571.9 L825,428.8 L956.7,423.5 L956.7,423.5 Z" fill="#CBCBCB"></path>
                        <path d="M956.7,423.5 L1033.5,517.1 L924,571.9 L956.7,423.5 L956.7,423.5 Z" fill="#D8D8D8"></path>
                        <path d="M956.7,423.5 L1074,410.1 L1033.5,517.2 L956.7,423.5 L956.7,423.5 Z" fill="#E7E7E7"></path>
                        <path d="M956.7,423.5 L990.7,308.4 L1074,410.1 L956.7,423.5 L956.7,423.5 Z" fill="#EBEBEB"></path>
                        <path d="M956.7,423.5 L891.1,258.6 L990.7,308.4 L956.7,423.5 L956.7,423.5 Z" fill="#E1E1E1"></path>
                        <path d="M956.7,423.5 L839,307.8 L891,258.6 L956.7,423.5 L956.7,423.5 Z" fill="#D5D5D5"></path>
                        <path d="M956.7,423.5 L825,428.9 L839.1,307.9 L956.7,423.5 L956.7,423.5 Z" fill="#CDCDCD"></path>
                        <path d="M1062.3,634.8 L1146,617.9 L1071.7,690.7 L1062.3,634.8 Z" fill="#D5D5D5"></path>
                        <path d="M1062.3,634.8 L1033.5,517.2 L1146,617.9 L1062.3,634.8 Z" fill="#C6C6C6"></path>
                        <path d="M1062.3,634.8 L924,571.9 L1033.5,517.1 L1062.3,634.8 L1062.3,634.8 Z" fill="#C1C1C1"></path>
                        <path d="M1062.3,634.8 L848.8,636.6 L924,571.9 L1062.3,634.8 L1062.3,634.8 Z" fill="#D8D8D8"></path>
                        <path d="M1194.7,202.4 L1130.2,230.4 L1119.1,81.8 L1194.7,202.4 L1194.7,202.4 Z" fill="#D2D2D2"></path>
                        <path d="M1194.7,202.4 L1254.2,340.3 L1130.2,230.3 L1194.7,202.4 L1194.7,202.4 Z" fill="#D5D5D5"></path>
                        <path d="M1194.7,202.4 L1337.6,270.7 L1254.2,340.3 L1194.7,202.4 L1194.7,202.4 Z" fill="#E6E6E6"></path>
                        <path d="M1194.7,202.4 L1341.7,151.8 L1337.6,270.7 L1194.7,202.4 L1194.7,202.4 Z M1194.7,202.4 L1209.5,30.7 L1341.7,151.8 L1194.7,202.4 L1194.7,202.4 Z" fill="#EFEFEF"></path>
                        <path d="M1194.7,202.4 L1119.1,81.8 L1209.5,30.7 L1194.7,202.4 L1194.7,202.4 Z" fill="#E0E0E0"></path>
                        <path d="M1110.1,297.7 L1074,410.1 L990.6,308.5 L1110.1,297.7 L1110.1,297.7 Z" fill="#CDCDCD"></path>
                        <path d="M1110.1,297.7 L1238,374.9 L1074,410.1 L1110.1,297.7 L1110.1,297.7 Z" fill="#D8D8D8"></path>
                        <path d="M1110.1,297.7 L1254.2,340.3 L1238,374.9 L1110.1,297.7 L1110.1,297.7 Z" fill="#EDEDED"></path>
                        <path d="M1110.1,297.7 L1130.2,230.4 L1254.2,340.4 L1110.1,297.7 L1110.1,297.7 Z" fill="#EFEFEF"></path>
                        <path d="M1110.1,297.7 L990.6,308.5 L1130.2,230.4 L1110.1,297.7 L1110.1,297.7 Z" fill="#E1E1E1"></path>
                        <path d="M1153.1,497.8 L1146,617.9 L1033.5,517.2 L1153.1,497.8 L1153.1,497.8 Z" fill="#CDCDCD"></path>
                        <path d="M1153.1,497.8 L1246.5,502.7 L1146,617.9 L1153.1,497.8 L1153.1,497.8 Z" fill="#EBEBEB"></path>
                        <path d="M1153.1,497.8 L1238,374.9 L1246.5,502.7 L1153.1,497.8 L1153.1,497.8 Z" fill="#F0F0F0"></path>
                        <path d="M1153.1,497.8 L1074,410.1 L1238,374.9 L1153.1,497.8 L1153.1,497.8 Z" fill="#E7E7E7"></path>
                        <path d="M1153.1,497.8 L1033.5,517.2 L1074,410.1 L1153.1,497.8 L1153.1,497.8 Z" fill="#D2D2D2"></path>
                        <path d="M1379.3,1 L1341.7,151.8 L1209.5,30.7 L1379.3,1 L1379.3,1 Z" fill="#C6C6C6"></path>
                        <path d="M1379.3,1 L1392,126.7 L1341.8,151.8 L1379.3,1 L1379.3,1 Z" fill="#D7D7D7"></path>
                        <path d="M1484.9,212.3 L1391.9,297.9 L1337.6,270.8 L1484.9,212.3 L1484.9,212.3 Z" fill="#C8C8C8"></path>
                        <path d="M1484.9,212.3 L1337.6,270.7 L1341.7,151.8 L1484.9,212.3 L1484.9,212.3 Z" fill="#C8C8C8"></path>
                        <path d="M1379.3,423.5 L1246.5,502.7 L1238,374.9 L1379.3,423.5 L1379.3,423.5 Z" fill="#CACACA"></path>
                        <path d="M1379.3,423.5 L1327.9,558.1 L1246.5,502.6 L1379.3,423.5 L1379.3,423.5 Z" fill="#D2D2D2"></path>
                        <path d="M1379.3,423.5 L1254.2,340.3 L1337.6,270.7 L1379.3,423.5 L1379.3,423.5 Z" fill="#D7D7D7"></path>
                        <path d="M1379.3,423.5 L1238,374.9 L1254.2,340.3 L1379.3,423.5 L1379.3,423.5 Z" fill="#CBCBCB"></path>
                        <path d="M1327.9,558.2 L1146,617.9 L1246.5,502.7 L1327.9,558.2 L1327.9,558.2 Z" fill="#E6E6E6"></path>
                        <path d="M1146,617.9 L1327.9,558.2 L1230.7,646.6 L1146,617.9 Z" fill="#D8D8D8"></path>
                    </g>
                    <path d="M1524.5,592.2 L1542.3,438.9 L1448.4,505.1 L1524.5,592.2 L1524.5,592.2 Z" id="Shape" fill="#D2D2D2"></path>
                    <path d="M1524.5,592.2 L1629.8,485.5 L1542.2,438.9 L1524.5,592.2 L1524.5,592.2 Z" id="Shape" fill="#E1E1E1"></path>
                    <path d="M1524.5,592.2 L1654.7,626.6 L1629.9,485.5 L1524.5,592.2 L1524.5,592.2 Z" id="Shape" fill="#EBEBEB"></path>
                    <path d="M1524.5,592.2 L1486.4,761.1 L1654.6,626.6 L1524.5,592.2 L1524.5,592.2 Z" id="Shape" fill="#EDEDED"></path>
                    <path d="M1524.5,592.2 L1387.7,644.5 L1486.5,761.1 L1524.5,592.2 L1524.5,592.2 Z" id="Shape" fill="#D7D7D7"></path>
                    <path d="M1448.4,505 L1379.3,457.6 L1387.7,644.6 L1448.4,505 L1448.4,505 Z" id="Shape" fill="#E1E1E1"></path>
                    <path d="M1379.3,457.5 L1526.9,375.7 L1391.9,331.7 L1379.3,457.5 L1379.3,457.5 Z" id="Shape" fill="#EFEFEF"></path>
                    <path d="M1379.3,457.5 L1542.3,438.8 L1526.9,375.7 L1379.3,457.5 L1379.3,457.5 Z" id="Shape" fill="#EBEBEB"></path>
                    <path d="M1379.3,457.5 L1448.4,504.9 L1542.3,438.7 L1379.3,457.5 L1379.3,457.5 Z" id="Shape" fill="#EFEFEF"></path>
                    <path d="M1379.3,457.5 L1392,331.8 L1337.7,304.7 L1379.3,457.5 L1379.3,457.5 Z M1626.9,76.3 L1634.7,194 L1484.9,246.3 L1626.9,76.3 L1626.9,76.3 Z" id="Shape" fill="#E4E4E4"></path>
                    <path d="M1484.9,246.3 L1526.9,375.8 L1634.7,194 L1484.9,246.3 L1484.9,246.3 Z" id="Shape" fill="#EEEEEE"></path>
                    <path d="M1484.9,246.3 L1391.9,331.9 L1526.9,375.9 L1484.9,246.3 L1484.9,246.3 Z" id="Shape" fill="#E1E1E1"></path>
                    <path d="M1659.6,761.1 L1654.6,626.6 L1486.4,761.1 L1659.6,761.1 L1659.6,761.1 Z" id="Shape" fill="#C6C6C6"></path>
                    <path d="M1659.6,761.1 L1810,704.3 L1654.6,626.6 L1659.6,761.1 L1659.6,761.1 Z" id="Shape" fill="#DDDDDD"></path>
                    <path d="M1659.6,761.1 L1820.1,779.4 L1810,704.2 L1659.6,761.1 L1659.6,761.1 Z" id="Shape" fill="#EFEFEF"></path>
                    <path d="M1765.3,549.8 L1722.1,439.3 L1629.9,485.4 L1765.3,549.8 L1765.3,549.8 Z" id="Shape" fill="#CACACA"></path>
                    <path d="M1765.3,549.8 L1947.1,515.2 L1722.1,439.3 L1765.3,549.8 L1765.3,549.8 Z" id="Shape" fill="#D7D7D7"></path>
                    <path d="M1765.3,549.8 L1810.1,704.3 L1947.1,515.3 L1765.3,549.8 L1765.3,549.8 Z" id="Shape" fill="#F2F2F2"></path>
                    <path d="M1765.3,549.8 L1654.7,626.6 L1810.1,704.3 L1765.3,549.8 L1765.3,549.8 Z" id="Shape" fill="#E2E2E2"></path>
                    <path d="M1765.3,549.8 L1629.9,485.5 L1654.7,626.6 L1765.3,549.8 L1765.3,549.8 Z" id="Shape" fill="#CFCFCF"></path>
                    <path d="M1659.6,338.5 L1634.6,194 L1526.8,375.8 L1659.6,338.5 L1659.6,338.5 Z" id="Shape" fill="#CACACA"></path>
                    <path d="M1659.6,338.5 L1765.1,259.2 L1634.7,194 L1659.6,338.5 L1659.6,338.5 Z" id="Shape" fill="#DBDBDB"></path>
                    <path d="M1659.6,338.5 L1722.1,439.3 L1765.1,259.2 L1659.6,338.5 L1659.6,338.5 Z" id="Shape" fill="#EBEBEB"></path>
                    <path d="M1659.6,338.5 L1629.8,485.4 L1722,439.3 L1659.6,338.5 L1659.6,338.5 Z" id="Shape" fill="#E6E6E6"></path>
                    <path d="M1659.6,338.5 L1542.2,438.8 L1629.8,485.4 L1659.6,338.5 L1659.6,338.5 Z" id="Shape" fill="#D8D8D8"></path>
                    <path d="M1659.6,338.5 L1526.9,375.7 L1542.3,438.8 L1659.6,338.5 L1659.6,338.5 Z" id="Shape" fill="#CDCDCD"></path>
                    <path d="M1765.3,127.2 L1803.4,250.3 L1794.3,22.7 L1765.3,127.2 L1765.3,127.2 Z" id="Shape" fill="#E7E7E7"></path>
                    <path d="M1765.3,127.2 L1765.1,259.2 L1803.4,250.3 L1765.3,127.2 L1765.3,127.2 Z" id="Shape" fill="#E2E2E2"></path>
                    <path d="M1765.3,127.2 L1634.7,194 L1765.2,259.2 L1765.3,127.2 L1765.3,127.2 Z" id="Shape" fill="#DDDDDD"></path>
                    <path d="M1765.3,127.2 L1626.9,76.3 L1634.7,194 L1765.3,127.2 L1765.3,127.2 Z" id="Shape" fill="#CBCBCB"></path>
                    <path d="M1970.8,698.8 L1947,515.3 L1810,704.3 L1970.8,698.8 L1970.8,698.8 Z" id="Shape" fill="#C7C7C7"></path>
                    <path d="M1970.8,698.8 L1974.6,502.6 L1947,515.3 L1970.8,698.8 L1970.8,698.8 Z" id="Shape" fill="#DBDBDB"></path>
                    <path d="M1970.8,698.8 L2001.5,511 L1974.6,502.7 L1970.8,698.8 L1970.8,698.8 Z" id="Shape" fill="#DDDDDD"></path>
                    <path d="M1970.8,698.8 L2082.8,629.4 L2001.5,511 L1970.8,698.8 L1970.8,698.8 Z" id="Shape" fill="#E1E1E1"></path>
                    <path d="M1970.8,698.8 L2008.7,777.4 L2082.8,629.4 L1970.8,698.8 L1970.8,698.8 Z" id="Shape" fill="#EBEBEB"></path>
                    <path d="M1970.8,698.8 L1828.5,786.3 L2008.7,777.5 L1970.8,698.8 L1970.8,698.8 Z" id="Shape" fill="#E2E2E2"></path>
                    <path d="M1970.8,698.8 L1820.1,779.5 L1828.5,786.3 L1970.8,698.8 L1970.8,698.8 Z" id="Shape" fill="#CACACA"></path>
                    <path d="M1970.8,698.8 L1810.1,704.3 L1820.2,779.5 L1970.8,698.8 L1970.8,698.8 Z" id="Shape" fill="#C8C8C8"></path>
                    <path d="M1823.4,377.6 L1765.1,259.2 L1722.1,439.3 L1823.4,377.6 L1823.4,377.6 Z" id="Shape" fill="#CFCFCF"></path>
                    <path d="M1823.4,377.6 L1803.4,250.3 L1765.1,259.2 L1823.4,377.6 L1823.4,377.6 Z" id="Shape" fill="#D5D5D5"></path>
                    <path d="M1823.4,377.6 L1941.1,280.3 L1803.4,250.3 L1823.4,377.6 L1823.4,377.6 Z" id="Shape" fill="#DBDBDB"></path>
                    <path d="M1823.4,377.6 L1974.6,502.6 L1941,280.4 L1823.4,377.6 L1823.4,377.6 Z" id="Shape" fill="#EBEBEB"></path>
                    <path d="M1823.4,377.6 L1947.1,515.2 L1974.7,502.5 L1823.4,377.6 L1823.4,377.6 Z" id="Shape" fill="#EFEFEF"></path>
                    <path d="M1823.4,377.6 L1722.1,439.3 L1947.1,515.2 L1823.4,377.6 L1823.4,377.6 Z" id="Shape" fill="#EDEDED"></path>
                    <path d="M1874.5,142.9 L1794.2,22.7 L1803.3,250.3 L1874.5,142.9 L1874.5,142.9 Z" id="Shape" fill="#D2D2D2"></path>
                    <path d="M1874.5,142.9 L2033.5,182.1 L2024.4,0.4 L1874.5,142.9 L1874.5,142.9 Z" id="Shape" fill="#EFEFEF"></path>
                    <path d="M1874.5,142.9 L1941,280.3 L2033.5,182.1 L1874.5,142.9 L1874.5,142.9 Z" id="Shape" fill="#F0F0F0"></path>
                    <path d="M1874.5,142.9 L1803.3,250.3 L1941,280.3 L1874.5,142.9 L1874.5,142.9 Z" id="Shape" fill="#E6E6E6"></path>
                    <path d="M2075.2,779.4 L2082.8,629.3 L2008.7,777.3 L2075.2,779.4 L2075.2,779.4 Z" id="Shape" fill="#D2D2D2"></path>
                    <path d="M2075.2,779.4 L2195,685.4 L2082.9,629.3 L2075.2,779.4 L2075.2,779.4 Z" id="Shape" fill="#DDDDDD"></path>
                    <path d="M2195,685.4 L2195.8,705.8 L2075.2,779.4 L2195,685.4 Z" id="Shape" fill="#EBEBEB"></path>
                    <path d="M2195.8,705.8 L2126.2,880.9 L2075.2,779.4 L2195.8,705.8 Z" id="Shape" fill="#E2E2E2"></path>
                    <path d="M2075.2,779.4 L2008.8,777.4 L2126.3,880.9 L2075.2,779.4 L2075.2,779.4 Z" id="Shape" fill="#DDDDDD"></path>
                    <path d="M2187.9,549.8 L2148.8,437.3 L2001.6,510.9 L2187.9,549.8 L2187.9,549.8 Z" id="Shape" fill="#C1C1C1"></path>
                    <path d="M2187.9,549.8 L2261.6,473.5 L2148.9,437.3 L2187.9,549.8 L2187.9,549.8 Z" id="Shape" fill="#D7D7D7"></path>
                    <path d="M2187.9,549.8 L2195,685.4 L2261.6,473.5 L2187.9,549.8 L2187.9,549.8 Z" id="Shape" fill="#E7E7E7"></path>
                    <path d="M2187.9,549.8 L2082.9,629.3 L2195,685.4 L2187.9,549.8 L2187.9,549.8 Z" id="Shape" fill="#E0E0E0"></path>
                    <path d="M2187.9,549.8 L2001.6,510.9 L2082.9,629.3 L2187.9,549.8 L2187.9,549.8 Z" id="Shape" fill="#CFCFCF"></path>
                    <path d="M2082.2,338.5 L2033.5,182.1 L1941,280.3 L2082.2,338.5 L2082.2,338.5 Z" id="Shape" fill="#CACACA"></path>
                    <path d="M2082.2,338.5 L2182,256.3 L2033.5,182.1 L2082.2,338.5 L2082.2,338.5 Z" id="Shape" fill="#D6D6D6"></path>
                    <path d="M2082.2,338.5 L2148.8,437.3 L2182,256.4 L2082.2,338.5 L2082.2,338.5 Z" id="Shape" fill="#EAEAEA"></path>
                    <path d="M2082.2,338.5 L2001.5,510.9 L2148.7,437.3 L2082.2,338.5 L2082.2,338.5 Z" id="Shape" fill="#E6E6E6"></path>
                    <path d="M2082.2,338.5 L1974.6,502.6 L2001.5,510.9 L2082.2,338.5 L2082.2,338.5 Z" id="Shape" fill="#D1D1D1"></path>
                    <path d="M2082.2,338.5 L1941,280.3 L1974.6,502.5 L2082.2,338.5 L2082.2,338.5 Z" id="Shape" fill="#CFCFCF"></path>
                    <path d="M2187.9,127.2 L2203.2,251.2 L2258.9,85.8 L2187.9,127.2 L2187.9,127.2 Z" id="Shape" fill="#F1F1F1"></path>
                    <path d="M2187.9,127.2 L2182,256.4 L2203.1,251.3 L2187.9,127.2 L2187.9,127.2 Z" id="Shape" fill="#E0E0E0"></path>
                    <path d="M2187.9,127.2 L2033.6,182.1 L2182,256.4 L2187.9,127.2 L2187.9,127.2 Z" id="Shape" fill="#DCDCDC"></path>
                    <path d="M2033.6,182.2 L2024.5,0.5 L2187.9,127.3 L2033.6,182.2 L2033.6,182.2 Z" id="Shape" fill="#C7C7C7"></path>
                    <path d="M2205.2,770.6 L2195.8,705.8 L2126.2,880.8 L2205.2,770.6 L2205.2,770.6 Z" id="Shape" fill="#D2D2D2"></path>
                    <path d="M2205.2,770.6 L2357.6,711.8 L2195.8,705.9 L2205.2,770.6 L2205.2,770.6 Z" id="Shape" fill="#D7D7D7"></path>
                    <path d="M2205.2,770.6 L2315.8,826.8 L2357.6,711.7 L2205.2,770.6 L2205.2,770.6 Z" id="Shape" fill="#E7E7E7"></path>
                    <path d="M2278.3,578.3 L2261.5,473.6 L2195,685.4 L2278.3,578.3 L2278.3,578.3 Z" id="Shape" fill="#D1D1D1"></path>
                    <path d="M2278.3,578.3 L2387.1,454.3 L2261.5,473.6 L2278.3,578.3 L2278.3,578.3 Z" id="Shape" fill="#DBDBDB"></path>
                    <path d="M2278.3,578.3 L2439.2,503.4 L2387.2,454.2 L2278.3,578.3 L2278.3,578.3 Z" id="Shape" fill="#EBEBEB"></path>
                    <path d="M2278.3,578.3 L2447.5,600.5 L2439.2,503.5 L2278.3,578.3 L2278.3,578.3 Z" id="Shape" fill="#F0F0F0"></path>
                    <path d="M2278.3,578.3 L2357.6,711.8 L2447.5,600.5 L2278.3,578.3 L2278.3,578.3 Z" id="Shape" fill="#F1F1F1"></path>
                    <path d="M2278.3,578.3 L2195.8,705.9 L2357.6,711.8 L2278.3,578.3 L2278.3,578.3 Z" id="Shape" fill="#E7E7E7"></path>
                    <path d="M2278.3,578.3 L2195,685.4 L2195.8,705.8 L2278.3,578.3 L2278.3,578.3 Z" id="Shape" fill="#D2D2D2"></path>
                    <path d="M2246.1,368.6 L2182,256.4 L2148.8,437.3 L2246.1,368.6 L2246.1,368.6 Z" id="Shape" fill="#D0D0D0"></path>
                    <path d="M2246.1,368.6 L2203.1,251.2 L2182,256.3 L2246.1,368.6 L2246.1,368.6 Z" id="Shape" fill="#D5D5D5"></path>
                    <path d="M2246.1,368.6 L2373.1,333.2 L2203.2,251.3 L2246.1,368.6 L2246.1,368.6 Z" id="Shape" fill="#D7D7D7"></path>
                    <path d="M2246.1,368.6 L2387.2,454.2 L2373.1,333.2 L2246.1,368.6 L2246.1,368.6 Z" id="Shape" fill="#EDEDED"></path>
                    <path d="M2246.1,368.6 L2261.5,473.5 L2387.1,454.2 L2246.1,368.6 L2246.1,368.6 Z" id="Shape" fill="#EEEEEE"></path>
                    <path d="M2246.1,368.6 L2148.8,437.3 L2261.5,473.5 L2246.1,368.6 L2246.1,368.6 Z" id="Shape" fill="#E0E0E0"></path>
                    <path d="M2321.7,211.8 L2258.8,85.9 L2203.1,251.3 L2321.7,211.8 L2321.7,211.8 Z" id="Shape" fill="#CDCDCD"></path>
                    <path d="M2321.7,211.8 L2472.1,190.1 L2387.1,128.5 L2321.7,211.8 L2321.7,211.8 Z" id="Shape" fill="#EAEAEA"></path>
                    <path d="M2321.7,211.8 L2373.1,333.2 L2472.1,190.1 L2321.7,211.8 L2321.7,211.8 Z" id="Shape" fill="#EFEFEF"></path>
                    <path d="M2321.7,211.8 L2203.1,251.3 L2373,333.2 L2321.7,211.8 L2321.7,211.8 Z" id="Shape" fill="#E4E4E4"></path>
                    <path d="M2504.8,761.1 L2447.5,600.4 L2357.6,711.7 L2504.8,761.1 L2504.8,761.1 Z" id="Shape" fill="#C8C8C8"></path>
                    <path d="M2504.8,761.1 L2603.5,678.4 L2447.5,600.4 L2504.8,761.1 L2504.8,761.1 Z" id="Shape" fill="#D6D6D6"></path>
                    <path d="M2504.8,761.1 L2573.4,812 L2603.5,678.4 L2504.8,761.1 L2504.8,761.1 Z" id="Shape" fill="#DDDDDD"></path>
                    <path d="M2504.8,761.1 L2357.6,711.7 L2315.8,826.8 L2504.8,761.1 L2504.8,761.1 Z" id="Shape" fill="#CACACA"></path>
                    <path d="M2610.5,549.8 L2538.8,453.6 L2439.2,503.4 L2610.5,549.8 L2610.5,549.8 Z" id="Shape" fill="#C6C6C6"></path>
                    <path d="M2610.5,549.8 L2678.4,531.7 L2538.8,453.6 L2610.5,549.8 L2610.5,549.8 Z" id="Shape" fill="#D2D2D2"></path>
                    <path d="M2610.5,549.8 L2667.3,680.2 L2678.4,531.7 L2610.5,549.8 L2610.5,549.8 Z" id="Shape" fill="#E6E6E6"></path>
                    <path d="M2610.5,549.8 L2603.6,678.4 L2667.4,680.3 L2610.5,549.8 L2610.5,549.8 Z" id="Shape" fill="#E4E4E4"></path>
                    <path d="M2610.5,549.8 L2447.6,600.4 L2603.6,678.4 L2610.5,549.8 L2610.5,549.8 Z" id="Shape" fill="#DCDCDC"></path>
                    <path d="M2610.5,549.8 L2439.2,503.4 L2447.5,600.4 L2610.5,549.8 L2610.5,549.8 Z" id="Shape" fill="#C7C7C7"></path>
                    <path d="M2504.8,338.5 L2472.1,190.1 L2373.1,333.2 L2504.8,338.5 L2504.8,338.5 Z" id="Shape" fill="#CBCBCB"></path>
                    <path d="M2504.8,338.5 L2581.6,244.9 L2472.1,190.1 L2504.8,338.5 L2504.8,338.5 Z" id="Shape" fill="#D8D8D8"></path>
                    <path d="M2504.8,338.5 L2622.1,351.9 L2581.6,244.8 L2504.8,338.5 L2504.8,338.5 Z" id="Shape" fill="#E7E7E7"></path>
                    <path d="M2504.8,338.5 L2538.8,453.6 L2622.2,352 L2504.8,338.5 L2504.8,338.5 Z" id="Shape" fill="#EBEBEB"></path>
                    <path d="M2504.8,338.5 L2439.2,503.4 L2538.8,453.6 L2504.8,338.5 L2504.8,338.5 Z" id="Shape" fill="#E1E1E1"></path>
                    <path d="M2504.8,338.5 L2387.2,454.2 L2439.2,503.4 L2504.8,338.5 L2504.8,338.5 Z" id="Shape" fill="#D5D5D5"></path>
                    <path d="M2504.8,338.5 L2373.1,333.2 L2387.2,454.2 L2504.8,338.5 L2504.8,338.5 Z" id="Shape" fill="#CDCDCD"></path>
                    <path d="M2740.3,100.8 L2581.6,244.9 L2610.5,127.2 L2740.3,100.8 Z" id="Shape" fill="#E7E7E7"></path>
                    <path d="M2610.5,127.2 L2472.2,190.1 L2581.7,244.9 L2610.5,127.2 L2610.5,127.2 Z" id="Shape" fill="#D8D8D8"></path>
                    <path d="M2610.5,127.2 L2387.2,128.5 L2472.2,190.1 L2610.5,127.2 L2610.5,127.2 Z" id="Shape" fill="#CACACA"></path>
                    <path d="M2646.4,726.7 L2603.5,678.5 L2573.4,812 L2646.4,726.7 L2646.4,726.7 Z" id="Shape" fill="#D7D7D7"></path>
                    <path d="M2646.4,726.7 L2667.3,680.3 L2603.5,678.4 L2646.4,726.7 L2646.4,726.7 Z" id="Shape" fill="#DDDDDD"></path>
                    <path d="M2646.4,726.7 L2757.7,731.4 L2667.3,680.3 L2646.4,726.7 L2646.4,726.7 Z" id="Shape" fill="#E6E6E6"></path>
                    <path d="M2742.8,559.7 L2678.3,531.7 L2667.2,680.2 L2742.8,559.7 L2742.8,559.7 Z" id="Shape" fill="#D2D2D2"></path>
                    <path d="M2742.8,559.7 L2802.3,421.8 L2678.3,531.8 L2742.8,559.7 L2742.8,559.7 Z" id="Shape" fill="#D5D5D5"></path>
                    <path d="M2742.8,559.7 L2885.7,491.4 L2802.3,421.8 L2742.8,559.7 L2742.8,559.7 Z" id="Shape" fill="#E6E6E6"></path>
                    <path d="M2885.8,491.4 L2889.8,610.3 L2742.8,559.7 L2885.8,491.4 Z" id="Shape" fill="#EFEFEF"></path>
                    <path d="M2889.8,610.3 L2757.7,731.4 L2742.8,559.7 L2889.8,610.3 Z" id="Shape" fill="#EAEAEA"></path>
                    <path d="M2742.8,559.7 L2667.2,680.2 L2757.6,731.3 L2742.8,559.7 L2742.8,559.7 Z" id="Shape" fill="#E0E0E0"></path>
                    <path d="M2658.3,464.4 L2622.1,352 L2538.7,453.6 L2658.3,464.4 L2658.3,464.4 Z" id="Shape" fill="#CDCDCD"></path>
                    <path d="M2658.3,464.4 L2786.2,387.2 L2622.2,352 L2658.3,464.4 L2658.3,464.4 Z" id="Shape" fill="#D8D8D8"></path>
                    <path d="M2658.3,464.4 L2802.4,421.8 L2786.2,387.2 L2658.3,464.4 L2658.3,464.4 Z" id="Shape" fill="#EDEDED"></path>
                    <path d="M2658.3,464.4 L2678.4,531.7 L2802.4,421.7 L2658.3,464.4 L2658.3,464.4 Z" id="Shape" fill="#EFEFEF"></path>
                    <path d="M2658.3,464.4 L2538.8,453.6 L2678.4,531.7 L2658.3,464.4 L2658.3,464.4 Z" id="Shape" fill="#E1E1E1"></path>
                    <path d="M2701.2,264.3 L2740.3,100.9 L2581.6,244.9 L2701.2,264.3 L2701.2,264.3 Z" id="Shape" fill="#CDCDCD"></path>
                    <path d="M2701.2,264.3 L2857,171.3 L2740.3,100.8 L2701.2,264.3 L2701.2,264.3 Z" id="Shape" fill="#EBEBEB"></path>
                    <path d="M2701.2,264.3 L2786.1,387.2 L2857,171.3 L2701.2,264.3 L2701.2,264.3 Z" id="Shape" fill="#F0F0F0"></path>
                    <path d="M2701.2,264.3 L2622.1,352 L2786.1,387.2 L2701.2,264.3 L2701.2,264.3 Z" id="Shape" fill="#E7E7E7"></path>
                    <path d="M2701.2,264.3 L2581.6,244.9 L2622.1,352 L2701.2,264.3 L2701.2,264.3 Z" id="Shape" fill="#D2D2D2"></path>
                    <path d="M2892.4,709.4 L2889.9,610.3 L2757.7,731.4 L2892.4,709.4 L2892.4,709.4 Z" id="Shape" fill="#C6C6C6"></path>
                    <path d="M2892.4,709.4 L2757.7,731.4 L2899.6,813.2 L2892.4,709.4 L2892.4,709.4 Z" id="Shape" fill="#D7D7D7"></path>
                    <path d="M2927.4,338.5 L2857,171.3 L2786.1,387.2 L2927.4,338.5 L2927.4,338.5 Z" id="Shape" fill="#CACACA"></path>
                    <path d="M2927.4,338.5 L2786.1,387.1 L2802.3,421.7 L2927.4,338.5 L2927.4,338.5 Z" id="Shape" fill="#CBCBCB"></path>
                    <path d="M2827.6,71.7 L2740.3,100.8 L2857,171.3 L2827.6,71.7 L2827.6,71.7 Z" id="Shape" fill="#C3C3C3"></path>
                    <path d="M1387.7,644.5 L1524.5,592.2 L1448.3,505 L1387.7,644.5 L1387.7,644.5 Z" id="Shape" fill="#CACACA"></path>
                    <path d="M1471.5,1145.6 L1453.7,992.3 L1573,1154.1 L1471.5,1145.6 L1471.5,1145.6 Z" id="Shape" fill="#D2D2D2"></path>
                    <path d="M1471.5,1145.6 L1366.2,1038.9 L1453.8,992.3 L1471.5,1145.6 L1471.5,1145.6 Z" id="Shape" fill="#E1E1E1"></path>
                    <path d="M1471.5,1145.6 L1341.3,1180 L1366.1,1038.9 L1471.5,1145.6 L1471.5,1145.6 Z" id="Shape" fill="#EBEBEB"></path>
                    <path d="M1471.5,1145.6 L1507.9,1279.4 L1341.4,1180 L1471.5,1145.6 L1471.5,1145.6 Z" id="Shape" fill="#EFEFEF"></path>
                    <path d="M1471.5,1145.6 L1580.2,1252.2 L1507.9,1279.4 L1471.5,1145.6 L1471.5,1145.6 Z" id="Shape" fill="#E0E0E0"></path>
                    <path d="M1471.5,1145.6 L1573.1,1154.1 L1580.2,1252.2 L1471.5,1145.6 L1471.5,1145.6 Z" id="Shape" fill="#D7D7D7"></path>
                    <path d="M1554.9,1015.9 L1438.5,905 L1542.3,908.2 L1554.9,1015.9 L1554.9,1015.9 Z" id="Shape" fill="#E4E4E4"></path>
                    <path d="M1554.9,1015.9 L1453.8,992.2 L1438.5,905 L1554.9,1015.9 L1554.9,1015.9 Z" id="Shape" fill="#EEEEEE"></path>
                    <path d="M1554.9,1015.9 L1573.1,1154.1 L1453.8,992.3 L1554.9,1015.9 L1554.9,1015.9 Z" id="Shape" fill="#EFEFEF"></path>
                    <path d="M1427.9,797.4 L1361.4,747.4 L1387.7,644.5 L1427.9,797.4 Z" id="Shape" fill="#E4E4E4"></path>
                    <path d="M1427.9,797.4 L1438.5,905 L1361.4,747.4 L1427.9,797.4 L1427.9,797.4 Z" id="Shape" fill="#E4E4E4"></path>
                    <path d="M1427.9,797.4 L1542.3,908.3 L1438.5,905.1 L1427.9,797.4 L1427.9,797.4 Z" id="Shape" fill="#EBEBEB"></path>
                    <path d="M1427.9,797.4 L1532.9,813.7 L1542.3,908.3 L1427.9,797.4 Z" id="Shape" fill="#D7D7D7"></path>
                    <path d="M1427.9,797.4 L1387.7,644.5 L1486.5,761.1 L1427.9,797.4 Z" id="Shape" fill="#D7D7D7"></path>
                    <path d="M1336.4,1314.5 L1341.4,1180 L1507.9,1279.4 L1336.4,1314.5 L1336.4,1314.5 Z" id="Shape" fill="#DBDBDB"></path>
                    <path d="M1336.4,1314.5 L1186,1257.7 L1341.4,1180 L1336.4,1314.5 L1336.4,1314.5 Z" id="Shape" fill="#EBEBEB"></path>
                    <path d="M1336.4,1314.5 L1175.9,1307.9 L1186,1257.6 L1336.4,1314.5 L1336.4,1314.5 Z" id="Shape" fill="#EFEFEF"></path>
                    <path d="M1230.7,1103.2 L1273.9,992.7 L1366.1,1038.8 L1230.7,1103.2 L1230.7,1103.2 Z" id="Shape" fill="#CACACA"></path>
                    <path d="M1230.7,1103.2 L1049,1068.7 L1274,992.8 L1230.7,1103.2 L1230.7,1103.2 Z" id="Shape" fill="#D7D7D7"></path>
                    <path d="M1230.7,1103.2 L1185.9,1257.7 L1048.9,1068.7 L1230.7,1103.2 L1230.7,1103.2 Z" id="Shape" fill="#DBDBDB"></path>
                    <path d="M1230.7,1103.2 L1341.3,1180 L1185.9,1257.7 L1230.7,1103.2 L1230.7,1103.2 Z" id="Shape" fill="#E0E0E0"></path>
                    <path d="M1230.7,1103.2 L1366.1,1038.9 L1341.3,1180 L1230.7,1103.2 L1230.7,1103.2 Z" id="Shape" fill="#CFCFCF"></path>
                    <path d="M1336.4,891.9 L1361.4,747.4 L1438.5,905 L1336.4,891.9 L1336.4,891.9 Z" id="Shape" fill="#EBEBEB"></path>
                    <path d="M1336.4,891.9 L1230.9,812.6 L1361.4,747.4 L1336.4,891.9 L1336.4,891.9 Z" id="Shape" fill="#DBDBDB"></path>
                    <path d="M1336.4,891.9 L1273.9,992.7 L1230.9,812.6 L1336.4,891.9 L1336.4,891.9 Z" id="Shape" fill="#EBEBEB"></path>
                    <path d="M1336.4,891.9 L1366.2,1038.8 L1274,992.7 L1336.4,891.9 L1336.4,891.9 Z" id="Shape" fill="#E6E6E6"></path>
                    <path d="M1336.4,891.9 L1453.8,992.2 L1366.2,1038.8 L1336.4,891.9 L1336.4,891.9 Z" id="Shape" fill="#D8D8D8"></path>
                    <path d="M1336.4,891.9 L1438.5,905 L1453.8,992.2 L1336.4,891.9 L1336.4,891.9 Z" id="Shape" fill="#CDCDCD"></path>
                    <path d="M1230.7,680.6 L1192.6,803.7 L1146,651.9 L1230.7,680.6 L1230.7,680.6 Z" id="Shape" fill="#E7E7E7"></path>
                    <path d="M1230.7,680.6 L1230.9,812.6 L1192.6,803.7 L1230.7,680.6 L1230.7,680.6 Z" id="Shape" fill="#E2E2E2"></path>
                    <path d="M1230.7,680.6 L1361.3,747.3 L1230.8,812.5 L1230.7,680.6 L1230.7,680.6 Z" id="Shape" fill="#DDDDDD"></path>
                    <path d="M1230.7,680.6 L1387.7,644.5 L1361.4,747.4 L1230.7,680.6 L1230.7,680.6 Z" id="Shape" fill="#CBCBCB"></path>
                    <path d="M1025.2,1252.2 L1049,1068.7 L1186,1257.7 L1025.2,1252.2 L1025.2,1252.2 Z" id="Shape" fill="#C7C7C7"></path>
                    <path d="M1025.2,1252.2 L1021.4,1056 L1049,1068.7 L1025.2,1252.2 L1025.2,1252.2 Z" id="Shape" fill="#DBDBDB"></path>
                    <path d="M1025.2,1252.2 L994.5,1064.4 L1021.4,1056.1 L1025.2,1252.2 L1025.2,1252.2 Z" id="Shape" fill="#DDDDDD"></path>
                    <path d="M1025.2,1252.2 L913.2,1182.8 L994.5,1064.4 L1025.2,1252.2 L1025.2,1252.2 Z" id="Shape" fill="#E1E1E1"></path>
                    <path d="M1025.2,1252.2 L987,1314.6 L913.2,1182.8 L1025.2,1252.2 L1025.2,1252.2 Z" id="Shape" fill="#EFEFEF"></path>
                    <path d="M1025.2,1252.2 L1117.3,1318.5 L987,1314.6 L1025.2,1252.2 L1025.2,1252.2 Z" id="Shape" fill="#E2E2E2"></path>
                    <path d="M1025.2,1252.2 L1175.9,1308 L1117.3,1318.5 L1025.2,1252.2 L1025.2,1252.2 Z" id="Shape" fill="#CFCFCF"></path>
                    <path d="M1025.2,1252.2 L1185.9,1257.7 L1175.8,1308 L1025.2,1252.2 L1025.2,1252.2 Z" id="Shape" fill="#C8C8C8"></path>
                    <path d="M1172.6,931 L1230.9,812.6 L1273.9,992.7 L1172.6,931 L1172.6,931 Z" id="Shape" fill="#CFCFCF"></path>
                    <path d="M1172.6,931 L1192.6,803.7 L1230.9,812.6 L1172.6,931 L1172.6,931 Z" id="Shape" fill="#D5D5D5"></path>
                    <path d="M1172.6,931 L1055,833.8 L1192.7,803.8 L1172.6,931 L1172.6,931 Z" id="Shape" fill="#DBDBDB"></path>
                    <path d="M1172.6,931 L1021.4,1056 L1055,833.8 L1172.6,931 L1172.6,931 Z" id="Shape" fill="#EBEBEB"></path>
                    <path d="M1172.6,931 L1049,1068.7 L1021.4,1056 L1172.6,931 L1172.6,931 Z" id="Shape" fill="#EFEFEF"></path>
                    <path d="M1172.6,931 L1273.9,992.7 L1048.9,1068.6 L1172.6,931 L1172.6,931 Z" id="Shape" fill="#EDEDED"></path>
                    <path d="M1071.7,724.7 L1145.9,651.9 L1192.6,803.7 L1071.7,724.7 L1071.7,724.7 Z" id="Shape" fill="#D2D2D2"></path>
                    <path d="M1071.7,724.7 L962.4,735.6 L1062.3,668.9 L1071.7,724.7 L1071.7,724.7 Z" id="Shape" fill="#E6E6E6"></path>
                    <path d="M1071.7,724.7 L1055,833.8 L962.5,735.6 L1071.7,724.7 L1071.7,724.7 Z" id="Shape" fill="#F0F0F0"></path>
                    <path d="M1071.7,724.7 L1192.6,803.7 L1054.9,833.7 L1071.7,724.7 L1071.7,724.7 Z" id="Shape" fill="#E6E6E6"></path>
                    <path d="M857.7,1319.4 L913.2,1182.8 L987,1314.6 L857.7,1319.4 L857.7,1319.4 Z" id="Shape" fill="#EDEDED"></path>
                    <path d="M857.7,1319.4 L795.4,1228.4 L913.2,1182.8 L857.7,1319.4 L857.7,1319.4 Z" id="Shape" fill="#E1E1E1"></path>
                    <path d="M857.7,1319.4 L742.4,1236.8 L795.4,1228.4 L857.7,1319.4 Z" id="Shape" fill="#E0E0E0"></path>
                    <path d="M857.7,1319.4 L727.7,1376.2 L742.4,1236.8 L857.7,1319.4 Z" id="Shape" fill="#EAEAEA"></path>
                    <path d="M808.1,1103.2 L847.2,990.7 L994.4,1064.3 L808.1,1103.2 L808.1,1103.2 Z" id="Shape" fill="#C1C1C1"></path>
                    <path d="M808.1,1103.2 L734.4,1026.9 L847.1,990.7 L808.1,1103.2 L808.1,1103.2 Z" id="Shape" fill="#D0D0D0"></path>
                    <path d="M808.1,1103.2 L795.3,1228.4 L734.4,1026.9 L808.1,1103.2 L808.1,1103.2 Z" id="Shape" fill="#C1C1C1"></path>
                    <path d="M808.1,1103.2 L913.1,1182.7 L795.3,1228.3 L808.1,1103.2 L808.1,1103.2 Z" id="Shape" fill="#D7D7D7"></path>
                    <path d="M808.1,1103.2 L994.4,1064.3 L913.1,1182.7 L808.1,1103.2 L808.1,1103.2 Z" id="Shape" fill="#CFCFCF"></path>
                    <path d="M913.8,891.9 L962.5,735.5 L1055,833.7 L913.8,891.9 L913.8,891.9 Z" id="Shape" fill="#CACACA"></path>
                    <path d="M913.8,891.9 L814,809.8 L962.5,735.6 L913.8,891.9 L913.8,891.9 Z" id="Shape" fill="#D6D6D6"></path>
                    <path d="M913.8,891.9 L847.2,990.7 L814,809.8 L913.8,891.9 L913.8,891.9 Z" id="Shape" fill="#EAEAEA"></path>
                    <path d="M913.8,891.9 L994.5,1064.3 L847.3,990.7 L913.8,891.9 L913.8,891.9 Z" id="Shape" fill="#E6E6E6"></path>
                    <path d="M913.8,891.9 L1021.4,1056 L994.5,1064.3 L913.8,891.9 L913.8,891.9 Z" id="Shape" fill="#D1D1D1"></path>
                    <path d="M913.8,891.9 L1055,833.8 L1021.4,1056 L913.8,891.9 L913.8,891.9 Z" id="Shape" fill="#CFCFCF"></path>
                    <path d="M745.9,700.4 L814,809.8 L792.9,804.7 L745.9,700.4 L745.9,700.4 Z" id="Shape" fill="#CFCFCF"></path>
                    <path d="M848.8,670.7 L962.5,735.6 L814,809.8 L848.8,670.7 L848.8,670.7 Z" id="Shape" fill="#CACACA"></path>
                    <path d="M699.5,1317.5 L742.4,1236.8 L727.7,1376.2 L699.5,1317.5 L699.5,1317.5 Z" id="Shape" fill="#C1C1C1"></path>
                    <path d="M699.5,1317.5 L638.4,1265.1 L742.4,1236.7 L699.5,1317.5 L699.5,1317.5 Z" id="Shape" fill="#D7D7D7"></path>
                    <path d="M699.5,1317.5 L627.4,1314.5 L638.4,1265.1 L699.5,1317.5 L699.5,1317.5 Z" id="Shape" fill="#DCDCDC"></path>
                    <path d="M1532.9,813.7 L1659.7,761.1 L1486.5,761.1 L1532.9,813.7 L1532.9,813.7 Z" id="Shape" fill="#E1E1E1"></path>
                    <path d="M717.7,1131.7 L734.5,1027 L795.4,1228.5 L717.7,1131.7 L717.7,1131.7 Z" id="Shape" fill="#D1D1D1"></path>
                    <path d="M717.7,1131.7 L608.9,1007.7 L734.5,1027 L717.7,1131.7 L717.7,1131.7 Z" id="Shape" fill="#DBDBDB"></path>
                    <path d="M717.7,1131.7 L556.8,1056.8 L608.8,1007.6 L717.7,1131.7 L717.7,1131.7 Z" id="Shape" fill="#EBEBEB"></path>
                    <path d="M717.7,1131.7 L548.5,1153.9 L556.8,1056.9 L717.7,1131.7 L717.7,1131.7 Z" id="Shape" fill="#F0F0F0"></path>
                    <path d="M717.7,1131.7 L638.4,1265.2 L548.5,1153.9 L717.7,1131.7 L717.7,1131.7 Z" id="Shape" fill="#F1F1F1"></path>
                    <path d="M717.7,1131.7 L742.4,1236.8 L638.4,1265.2 L717.7,1131.7 L717.7,1131.7 Z" id="Shape" fill="#E7E7E7"></path>
                    <path d="M717.7,1131.7 L795.4,1228.4 L742.5,1236.8 L717.7,1131.7 L717.7,1131.7 Z" id="Shape" fill="#D7D7D7"></path>
                    <path d="M749.9,922 L814,809.8 L847.2,990.7 L749.9,922 L749.9,922 Z" id="Shape" fill="#D0D0D0"></path>
                    <path d="M749.9,922 L792.9,804.6 L814,809.7 L749.9,922 L749.9,922 Z" id="Shape" fill="#D5D5D5"></path>
                    <path d="M749.9,922 L622.9,886.6 L792.8,804.7 L749.9,922 L749.9,922 Z" id="Shape" fill="#D7D7D7"></path>
                    <path d="M749.9,922 L608.8,1007.6 L622.9,886.6 L749.9,922 L749.9,922 Z" id="Shape" fill="#EDEDED"></path>
                    <path d="M749.9,922 L734.5,1026.9 L608.9,1007.6 L749.9,922 L749.9,922 Z" id="Shape" fill="#F5F5F5"></path>
                    <path d="M749.9,922 L847.2,990.7 L734.5,1026.9 L749.9,922 L749.9,922 Z" id="Shape" fill="#E0E0E0"></path>
                    <path d="M641.6,708.4 L745.8,700.4 L792.8,804.7 L641.6,708.4 L641.6,708.4 Z" id="Shape" fill="#CACACA"></path>
                    <path d="M641.6,708.4 L523.9,743.5 L570,661.5 L641.6,708.4 L641.6,708.4 Z" id="Shape" fill="#EAEAEA"></path>
                    <path d="M674.3,765.2 L622.9,886.6 L523.9,743.5 L674.3,765.2 L674.3,765.2 Z" id="Shape" fill="#EFEFEF"></path>
                    <path d="M674.3,765.2 L792.9,804.7 L623,886.6 L674.3,765.2 L674.3,765.2 Z" id="Shape" fill="#E4E4E4"></path>
                    <path d="M531.8,1273.2 L548.5,1153.8 L638.4,1265.1 L531.8,1273.2 L531.8,1273.2 Z" id="Shape" fill="#E7E7E7"></path>
                    <path d="M531.8,1273.2 L392.5,1231.8 L548.5,1153.8 L531.8,1273.2 L531.8,1273.2 Z" id="Shape" fill="#D6D6D6"></path>
                    <path d="M531.8,1273.2 L431.3,1314.6 L392.5,1231.9 L531.8,1273.2 L531.8,1273.2 Z" id="Shape" fill="#EAEAEA"></path>
                    <path id="Shape" fill="#E6E6E6" d="M531.8,1273.2 L668,1273.2 L471.9,1273.2 L531.8,1273.2 L531.8,1273.2 Z"></path>
                    <path d="M531.8,1273.2 L638.4,1265.2 L627.4,1314.6 L531.8,1273.2 L531.8,1273.2 Z" id="Shape" fill="#EBEBEB"></path>
                    <path d="M385.6,1103.2 L457.3,1007 L556.9,1056.8 L385.6,1103.2 L385.6,1103.2 Z" id="Shape" fill="#C6C6C6"></path>
                    <path d="M385.6,1103.2 L317.7,1085.1 L457.2,1007 L385.6,1103.2 L385.6,1103.2 Z" id="Shape" fill="#D2D2D2"></path>
                    <path d="M385.6,1103.2 L328.8,1233.6 L317.7,1085.1 L385.6,1103.2 L385.6,1103.2 Z" id="Shape" fill="#E6E6E6"></path>
                    <path d="M385.6,1103.2 L392.5,1231.8 L328.7,1233.7 L385.6,1103.2 L385.6,1103.2 Z" id="Shape" fill="#E4E4E4"></path>
                    <path d="M385.6,1103.2 L548.5,1153.8 L392.5,1231.8 L385.6,1103.2 L385.6,1103.2 Z" id="Shape" fill="#DCDCDC"></path>
                    <path d="M385.6,1103.2 L556.9,1056.8 L548.6,1153.8 L385.6,1103.2 L385.6,1103.2 Z" id="Shape" fill="#C7C7C7"></path>
                    <path d="M491.2,891.9 L523.9,743.5 L622.9,886.6 L491.2,891.9 L491.2,891.9 Z" id="Shape" fill="#CBCBCB"></path>
                    <path d="M491.2,891.9 L414.4,798.3 L523.9,743.5 L491.2,891.9 L491.2,891.9 Z" id="Shape" fill="#D8D8D8"></path>
                    <path d="M491.2,891.9 L373.9,905.3 L414.4,798.2 L491.2,891.9 L491.2,891.9 Z" id="Shape" fill="#E7E7E7"></path>
                    <path d="M491.2,891.9 L457.2,1007 L373.8,905.4 L491.2,891.9 L491.2,891.9 Z" id="Shape" fill="#EBEBEB"></path>
                    <path d="M491.2,891.9 L556.8,1056.8 L457.2,1007 L491.2,891.9 L491.2,891.9 Z" id="Shape" fill="#E1E1E1"></path>
                    <path d="M491.2,891.9 L608.8,1007.6 L556.8,1056.8 L491.2,891.9 L491.2,891.9 Z" id="Shape" fill="#D5D5D5"></path>
                    <path d="M491.2,891.9 L622.9,886.6 L608.8,1007.6 L491.2,891.9 L491.2,891.9 Z" id="Shape" fill="#CDCDCD"></path>
                    <path d="M392.9,689.9 L259.3,702.7 L326.4,653.2 L392.9,689.9 Z" id="Shape" fill="#E7E7E7"></path>
                    <path d="M392.9,689.9 L414.4,798.3 L259.3,702.7 L392.9,689.9 Z" id="Shape" fill="#EFEFEF"></path>
                    <path d="M392.9,689.9 L523.9,743.6 L414.4,798.4 L392.9,689.9 L392.9,689.9 Z" id="Shape" fill="#D8D8D8"></path>
                    <path d="M392.9,689.9 L569.9,661.5 L523.8,743.5 L392.9,689.9 L392.9,689.9 Z" id="Shape" fill="#CACACA"></path>
                    <path d="M307.5,1343.2 L392.5,1231.8 L431.3,1314.5 L307.5,1343.2 L307.5,1343.2 Z" id="Shape" fill="#D6D6D6"></path>
                    <path d="M307.5,1343.2 L328.7,1233.6 L392.5,1231.7 L307.5,1343.2 L307.5,1343.2 Z" id="Shape" fill="#D0D0D0"></path>
                    <path d="M307.5,1343.2 L238.3,1284.8 L328.7,1233.7 L307.5,1343.2 L307.5,1343.2 Z" id="Shape" fill="#DDDDDD"></path>
                    <path d="M253.2,1113.1 L317.7,1085.1 L328.8,1233.6 L253.2,1113.1 L253.2,1113.1 Z" id="Shape" fill="#D2D2D2"></path>
                    <path d="M253.2,1113.1 L193.7,975.2 L317.7,1085.2 L253.2,1113.1 L253.2,1113.1 Z" id="Shape" fill="#D5D5D5"></path>
                    <path d="M253.2,1113.1 L110.3,1044.8 L193.7,975.2 L253.2,1113.1 L253.2,1113.1 Z" id="Shape" fill="#E6E6E6"></path>
                    <path d="M253.2,1113.1 L106.2,1163.7 L110.2,1044.8 L253.2,1113.1 Z" id="Shape" fill="#EDEDED"></path>
                    <path d="M253.2,1113.1 L238.4,1284.8 L106.2,1163.7 L253.2,1113.1 Z" id="Shape" fill="#EFEFEF"></path>
                    <path d="M253.2,1113.1 L328.8,1233.6 L238.4,1284.7 L253.2,1113.1 L253.2,1113.1 Z" id="Shape" fill="#E6E6E6"></path>
                    <path d="M337.8,1017.8 L373.9,905.4 L457.2,1007 L337.8,1017.8 L337.8,1017.8 Z" id="Shape" fill="#CDCDCD"></path>
                    <path d="M337.8,1017.8 L209.9,940.6 L373.9,905.4 L337.8,1017.8 L337.8,1017.8 Z" id="Shape" fill="#D8D8D8"></path>
                    <path d="M337.8,1017.8 L193.7,975.2 L209.9,940.6 L337.8,1017.8 L337.8,1017.8 Z" id="Shape" fill="#EDEDED"></path>
                    <path d="M337.8,1017.8 L317.7,1085.1 L193.7,975.1 L337.8,1017.8 L337.8,1017.8 Z" id="Shape" fill="#EFEFEF"></path>
                    <path d="M337.8,1017.8 L457.2,1007 L317.6,1085.1 L337.8,1017.8 L337.8,1017.8 Z" id="Shape" fill="#E1E1E1"></path>
                    <path d="M294.8,817.7 L259.3,702.7 L414.4,798.3 L294.8,817.7 L294.8,817.7 Z" id="Shape" fill="#CDCDCD"></path>
                    <path d="M294.8,817.7 L139,724.7 L259.3,702.7 L294.8,817.7 L294.8,817.7 Z" id="Shape" fill="#D8D8D8"></path>
                    <path d="M294.8,817.7 L209.9,940.6 L139,724.7 L294.8,817.7 L294.8,817.7 Z" id="Shape" fill="#F0F0F0"></path>
                    <path d="M294.8,817.7 L373.9,905.4 L209.9,940.6 L294.8,817.7 L294.8,817.7 Z" id="Shape" fill="#E7E7E7"></path>
                    <path d="M294.8,817.7 L414.4,798.3 L373.9,905.4 L294.8,817.7 L294.8,817.7 Z" id="Shape" fill="#D2D2D2"></path>
                    <path d="M68.6,1314.5 L106.2,1163.7 L238.4,1284.8 L68.6,1314.5 L68.6,1314.5 Z" id="Shape" fill="#C6C6C6"></path>
                    <path d="M68.6,1314.5 L167.2,1336.4 L103.5,1358.3 L68.6,1314.5 Z" id="Shape" fill="#D7D7D7"></path>
                    <path d="M68.6,1314.5 L238.3,1284.8 L167.2,1336.4 L68.6,1314.5 L68.6,1314.5 Z" id="Shape" fill="#DDDDDD"></path>
                    <path d="M68.6,891.9 L139,724.7 L209.9,940.6 L68.6,891.9 L68.6,891.9 Z" id="Shape" fill="#CACACA"></path>
                    <path d="M68.6,891.9 L193.7,975.1 L110.3,1044.7 L68.6,891.9 L68.6,891.9 Z" id="Shape" fill="#D7D7D7"></path>
                    <path d="M68.6,891.9 L209.9,940.5 L193.7,975.1 L68.6,891.9 L68.6,891.9 Z" id="Shape" fill="#CBCBCB"></path>
                    <path d="M217.2,668.8 L259.3,702.6 L139,724.7 L217.2,668.8 L217.2,668.8 Z" id="Shape" fill="#EBEBEB"></path>
                    <path d="M674.3,765.2 L523.9,743.5 L641.6,708.4 L674.3,765.2 Z" id="Shape" fill="#F5F5F5"></path>
                    <path d="M641.6,708.4 L792.9,804.7 L674.3,765.2 L641.6,708.4 Z" id="Shape" fill="#EFEFEF"></path>
                    <path d="M1486.5,761.1 L1427.9,797.4 L1532.9,813.7 L1486.5,761.1 L1486.5,761.1 Z" id="Shape" fill="#E4E4E4"></path>
                    <path d="M773.6,584.3 L745.9,700.4 L641.6,708.4 L773.6,584.3 Z" id="Shape" fill="#D6D6D6"></path>
                    <path d="M773.6,584.3 L848.8,670.7 L745.9,700.4 L773.6,584.3 L773.6,584.3 Z" id="Shape" fill="#DCDCDC"></path>
                    <path d="M814,809.8 L745.9,700.4 L848.8,670.7 L814,809.8 L814,809.8 Z" id="Shape" fill="#E6E6E6"></path>
                    <path d="M1062.3,668.8 L962.4,735.5 L848.7,670.6 L1062.3,668.8 L1062.3,668.8 Z" id="Shape" fill="#EAEAEA"></path>
                    <path d="M1230.7,680.6 L1327.9,592.2 L1387.7,644.5 L1230.7,680.6 Z" id="Shape" fill="#E2E2E2"></path>
                    <path d="M1327.9,592.2 L1379.3,457.6 L1387.7,644.6 L1327.9,592.2 L1327.9,592.2 Z" id="Shape" fill="#CACACA"></path>
                    <path d="M1208.6,1423.3 L1336.4,1314.5 L1379.3,1398.5 L1208.6,1423.3 L1208.6,1423.3 Z" id="Shape" fill="#E2E2E2"></path>
                    <path d="M0.2,651.9 L217.2,668.8 L139,724.7 L0.2,651.9 L0.2,651.9 Z" id="Shape" fill="#D5D5D5"></path>
                    <path d="M1391.9,160.7 L1341.7,185.8 L1484.9,246.3 L1391.9,160.7 L1391.9,160.7 Z" id="Shape" fill="#E1E1E1"></path>
                    <path d="M1484.9,246.3 L1519.5,73.5 L1391.9,160.7 L1484.9,246.3 L1484.9,246.3 Z" id="Shape" fill="#CACACA"></path>
                    <path d="M1519.5,73.4 L1484.9,246.2 L1626.9,76.3 L1519.5,73.4 L1519.5,73.4 Z" id="Shape" fill="#E7E7E7"></path>
                    <path d="M2387.2,128.6 L2258.9,85.9 L2321.8,211.8 L2387.2,128.6 L2387.2,128.6 Z" id="Shape" fill="#D7D7D7"></path>
                    <g transform="translate(1336.000000, 726.000000)" id="Shape">
                        <path d="M1587.4,535.2 L1457.2,569.6 L1482,428.5 L1587.4,535.2 L1587.4,535.2 Z" fill="#EBEBEB"></path>
                        <path d="M1587.4,535.2 L1625.5,704.1 L1457.3,569.6 L1587.4,535.2 L1587.4,535.2 Z" fill="#EDEDED"></path>
                        <path d="M1452.3,704.2 L1457.3,569.7 L1625.5,704.2 L1452.3,704.2 L1452.3,704.2 Z" fill="#C6C6C6"></path>
                        <path d="M1452.3,704.2 L1301.9,647.4 L1457.3,569.7 L1452.3,704.2 L1452.3,704.2 Z" fill="#DDDDDD"></path>
                        <path d="M1452.3,704.2 L1291.8,697.6 L1301.9,647.3 L1452.3,704.2 L1452.3,704.2 Z" fill="#EFEFEF"></path>
                        <path d="M1346.7,492.9 L1389.9,382.4 L1482.1,428.5 L1346.7,492.9 L1346.7,492.9 Z" fill="#CACACA"></path>
                        <path d="M1346.7,492.9 L1164.9,458.3 L1389.9,382.4 L1346.7,492.9 L1346.7,492.9 Z" fill="#D7D7D7"></path>
                        <path d="M1346.7,492.9 L1301.9,647.4 L1164.9,458.4 L1346.7,492.9 L1346.7,492.9 Z" fill="#F2F2F2"></path>
                        <path d="M1346.7,492.9 L1457.3,569.7 L1301.9,647.4 L1346.7,492.9 L1346.7,492.9 Z" fill="#E2E2E2"></path>
                        <path d="M1346.7,492.9 L1482.1,428.6 L1457.3,569.7 L1346.7,492.9 L1346.7,492.9 Z" fill="#CFCFCF"></path>
                        <path d="M1452.3,281.6 L1477.3,137.1 L1585,318.8 L1452.3,281.6 L1452.3,281.6 Z" fill="#CACACA"></path>
                        <path d="M1452.3,281.6 L1346.8,202.3 L1477.3,137.1 L1452.3,281.6 L1452.3,281.6 Z" fill="#DBDBDB"></path>
                        <path d="M1452.3,281.6 L1389.8,382.4 L1346.8,202.3 L1452.3,281.6 L1452.3,281.6 Z" fill="#EBEBEB"></path>
                        <path d="M1452.3,281.6 L1482.1,428.5 L1389.9,382.4 L1452.3,281.6 L1452.3,281.6 Z" fill="#E6E6E6"></path>
                        <path d="M1452.3,281.6 L1569.7,381.9 L1482.1,428.5 L1452.3,281.6 L1452.3,281.6 Z" fill="#D8D8D8"></path>
                        <path d="M1452.3,281.6 L1585,318.8 L1569.6,381.9 L1452.3,281.6 L1452.3,281.6 Z" fill="#D5D5D5"></path>
                        <path d="M1368.1,76.5 L1308.5,193.4 L1310.3,0.7 L1368.1,76.5 L1368.1,76.5 Z" fill="#E7E7E7"></path>
                        <path d="M1368.1,76.5 L1346.8,202.3 L1308.5,193.4 L1368.1,76.5 L1368.1,76.5 Z" fill="#E2E2E2"></path>
                        <path d="M1368.1,76.5 L1477.2,137 L1346.7,202.2 L1368.1,76.5 L1368.1,76.5 Z" fill="#DDDDDD"></path>
                        <path d="M1368.1,76.5 L1563.6,87.2 L1477.3,137 L1368.1,76.5 L1368.1,76.5 Z" fill="#CBCBCB"></path>
                        <path d="M1141.1,641.8 L1164.9,458.3 L1301.9,647.3 L1141.1,641.8 L1141.1,641.8 Z" fill="#C7C7C7"></path>
                        <path d="M1141.1,641.8 L1137.3,445.6 L1164.9,458.3 L1141.1,641.8 L1141.1,641.8 Z" fill="#DBDBDB"></path>
                        <path d="M1141.1,641.8 L1110.4,454 L1137.3,445.7 L1141.1,641.8 L1141.1,641.8 Z" fill="#DDDDDD"></path>
                        <path d="M1141.1,641.8 L1029.1,572.4 L1110.4,454 L1141.1,641.8 L1141.1,641.8 Z" fill="#E1E1E1"></path>
                        <path d="M1141.1,641.8 L1102.9,704.2 L1029.1,572.4 L1141.1,641.8 L1141.1,641.8 Z" fill="#EBEBEB"></path>
                        <path d="M1141.1,641.8 L1283.4,704.2 L1102.9,704.2 L1141.1,641.8 L1141.1,641.8 Z" fill="#E2E2E2"></path>
                        <path d="M1141.1,641.8 L1291.8,697.6 L1283.4,704.2 L1141.1,641.8 L1141.1,641.8 Z" fill="#CACACA"></path>
                        <path d="M1141.1,641.8 L1301.8,647.3 L1291.7,697.6 L1141.1,641.8 L1141.1,641.8 Z" fill="#C8C8C8"></path>
                        <path d="M1288.6,320.7 L1346.9,202.3 L1389.9,382.4 L1288.6,320.7 L1288.6,320.7 Z" fill="#CFCFCF"></path>
                        <path d="M1288.6,320.7 L1308.6,193.4 L1346.9,202.3 L1288.6,320.7 L1288.6,320.7 Z" fill="#D5D5D5"></path>
                        <path d="M1288.6,320.7 L1170.9,223.4 L1308.6,193.4 L1288.6,320.7 L1288.6,320.7 Z" fill="#DBDBDB"></path>
                        <path d="M1288.6,320.7 L1137.4,445.7 L1171,223.5 L1288.6,320.7 L1288.6,320.7 Z" fill="#EBEBEB"></path>
                        <path d="M1288.6,320.7 L1164.9,458.3 L1137.3,445.6 L1288.6,320.7 L1288.6,320.7 Z" fill="#EFEFEF"></path>
                        <path d="M1288.6,320.7 L1389.9,382.4 L1164.9,458.3 L1288.6,320.7 L1288.6,320.7 Z" fill="#EDEDED"></path>
                        <path d="M1237.4,86 L1310.4,0.7 L1308.6,193.4 L1237.4,86 L1237.4,86 Z" fill="#D2D2D2"></path>
                        <path d="M1237.4,86 L1078.4,125.2 L1168.8,33.7 L1237.4,86 L1237.4,86 Z" fill="#EAEAEA"></path>
                        <path d="M1237.4,86 L1170.9,223.4 L1078.4,125.2 L1237.4,86 L1237.4,86 Z" fill="#F0F0F0"></path>
                        <path d="M1237.4,86 L1308.6,193.4 L1170.9,223.4 L1237.4,86 L1237.4,86 Z" fill="#E6E6E6"></path>
                        <path d="M1029.7,704.2 L1029.1,572.4 L1102.9,704.2 L1029.7,704.2 L1029.7,704.2 Z" fill="#D2D2D2"></path>
                        <path d="M1029.7,704.2 L917,628.5 L1029.1,572.4 L1029.7,704.2 L1029.7,704.2 Z" fill="#DDDDDD"></path>
                        <path d="M1029.7,704.2 L912.8,633 L916.9,628.6 L1029.7,704.2 L1029.7,704.2 Z M1029.7,704.2 L938,704.2 L912.8,633 L1029.7,704.2 L1029.7,704.2 Z" fill="#EBEBEB"></path>
                        <path d="M924.1,492.9 L963.2,380.4 L1110.4,454 L924.1,492.9 L924.1,492.9 Z" fill="#C1C1C1"></path>
                        <path d="M924.1,492.9 L850.4,416.6 L963.1,380.4 L924.1,492.9 L924.1,492.9 Z" fill="#D7D7D7"></path>
                        <path d="M924.1,492.9 L917,628.5 L850.4,416.6 L924.1,492.9 L924.1,492.9 Z" fill="#E7E7E7"></path>
                        <path d="M924.1,492.9 L1029.1,572.4 L917,628.5 L924.1,492.9 L924.1,492.9 Z" fill="#E0E0E0"></path>
                        <path d="M924.1,492.9 L1110.4,454 L1029.1,572.4 L924.1,492.9 L924.1,492.9 Z" fill="#CFCFCF"></path>
                        <path d="M1029.7,281.6 L1078.4,125.2 L1170.9,223.4 L1029.7,281.6 L1029.7,281.6 Z" fill="#CACACA"></path>
                        <path d="M1029.7,281.6 L929.9,199.4 L1078.4,125.2 L1029.7,281.6 L1029.7,281.6 Z" fill="#D6D6D6"></path>
                        <path d="M1029.7,281.6 L963.1,380.4 L929.9,199.5 L1029.7,281.6 L1029.7,281.6 Z" fill="#EAEAEA"></path>
                        <path d="M1029.7,281.6 L1110.4,454 L963.2,380.4 L1029.7,281.6 L1029.7,281.6 Z" fill="#E6E6E6"></path>
                        <path d="M1029.7,281.6 L1137.3,445.7 L1110.4,454 L1029.7,281.6 L1029.7,281.6 Z" fill="#D1D1D1"></path>
                        <path d="M1029.7,281.6 L1170.9,223.4 L1137.3,445.6 L1029.7,281.6 L1029.7,281.6 Z" fill="#CFCFCF"></path>
                        <path d="M979.8,100.8 L908.8,194.3 L869.2,44.5 L979.8,100.8 L979.8,100.8 Z" fill="#DCDCDC"></path>
                        <path d="M979.8,100.8 L929.9,199.4 L908.8,194.3 L979.8,100.8 L979.8,100.8 Z" fill="#D0D0D0"></path>
                        <path d="M979.8,100.8 L1078.4,125.2 L929.9,199.4 L979.8,100.8 L979.8,100.8 Z" fill="#DCDCDC"></path>
                        <path d="M979.8,100.8 L1168.8,33.7 L1078.4,125.2 L979.8,100.8 L979.8,100.8 Z" fill="#D6D6D6"></path>
                        <path d="M866.8,761.8 L912.9,632.9 L938.1,704.1 L866.8,761.8 L866.8,761.8 Z" fill="#D2D2D2"></path>
                        <path d="M866.8,761.8 L754.3,654.8 L912.8,632.9 L866.8,761.8 L866.8,761.8 Z" fill="#D7D7D7"></path>
                        <path d="M833.6,521.3 L850.4,416.6 L917,628.5 L833.6,521.3 L833.6,521.3 Z" fill="#D1D1D1"></path>
                        <path d="M833.6,521.3 L724.8,397.3 L850.4,416.6 L833.6,521.3 L833.6,521.3 Z" fill="#DBDBDB"></path>
                        <path d="M833.6,521.3 L672.7,446.4 L724.7,397.2 L833.6,521.3 L833.6,521.3 Z" fill="#EBEBEB"></path>
                        <path d="M833.6,521.3 L664.4,543.5 L672.7,446.5 L833.6,521.3 L833.6,521.3 Z" fill="#F0F0F0"></path>
                        <path d="M833.6,521.3 L754.3,654.8 L664.4,543.5 L833.6,521.3 L833.6,521.3 Z" fill="#F1F1F1"></path>
                        <path d="M833.6,521.3 L912.8,632.9 L754.3,654.8 L833.6,521.3 L833.6,521.3 Z" fill="#E7E7E7"></path>
                        <path d="M833.6,521.3 L917,628.5 L912.9,632.9 L833.6,521.3 L833.6,521.3 Z" fill="#D2D2D2"></path>
                        <path d="M865.8,311.7 L929.9,199.4 L963.1,380.3 L865.8,311.7 L865.8,311.7 Z" fill="#D0D0D0"></path>
                        <path d="M865.8,311.7 L908.8,194.3 L929.9,199.4 L865.8,311.7 L865.8,311.7 Z" fill="#C1C1C1"></path>
                        <path d="M865.8,311.7 L738.8,276.3 L908.7,194.4 L865.8,311.7 L865.8,311.7 Z" fill="#D7D7D7"></path>
                        <path d="M865.8,311.7 L724.7,397.3 L738.8,276.3 L865.8,311.7 L865.8,311.7 Z" fill="#EDEDED"></path>
                        <path d="M865.8,311.7 L850.4,416.6 L724.8,397.3 L865.8,311.7 L865.8,311.7 Z" fill="#EEEEEE"></path>
                        <path d="M865.8,311.7 L963.1,380.4 L850.4,416.6 L865.8,311.7 L865.8,311.7 Z" fill="#E0E0E0"></path>
                        <path d="M790.2,154.9 L869.2,44.6 L908.8,194.4 L790.2,154.9 L790.2,154.9 Z" fill="#C1C1C1"></path>
                        <path d="M790.2,154.9 L639.8,133.2 L672.7,51.4 L790.2,154.9 L790.2,154.9 Z" fill="#EAEAEA"></path>
                        <path d="M790.2,154.9 L738.8,276.3 L639.8,133.2 L790.2,154.9 L790.2,154.9 Z" fill="#EFEFEF"></path>
                        <path d="M790.2,154.9 L908.8,194.4 L738.9,276.3 L790.2,154.9 L790.2,154.9 Z" fill="#E4E4E4"></path>
                        <path d="M607.1,704.2 L664.4,543.5 L754.3,654.8 L607.1,704.2 L607.1,704.2 Z" fill="#C8C8C8"></path>
                        <path d="M607.1,704.2 L508.4,621.5 L664.4,543.5 L607.1,704.2 L607.1,704.2 Z" fill="#D6D6D6"></path>
                        <path d="M607.1,704.2 L547.2,704.2 L508.4,621.5 L607.1,704.2 L607.1,704.2 Z" fill="#EAEAEA"></path>
                        <path d="M501.5,492.9 L573.2,396.7 L672.8,446.5 L501.5,492.9 L501.5,492.9 Z" fill="#C6C6C6"></path>
                        <path d="M501.5,492.9 L433.6,474.8 L573.2,396.7 L501.5,492.9 L501.5,492.9 Z" fill="#D2D2D2"></path>
                        <path d="M501.5,492.9 L444.7,623.3 L433.6,474.8 L501.5,492.9 L501.5,492.9 Z" fill="#E6E6E6"></path>
                        <path d="M501.5,492.9 L508.4,621.5 L444.6,623.4 L501.5,492.9 L501.5,492.9 Z" fill="#E4E4E4"></path>
                        <path d="M501.5,492.9 L664.4,543.5 L508.4,621.5 L501.5,492.9 L501.5,492.9 Z" fill="#DCDCDC"></path>
                        <path d="M501.5,492.9 L672.8,446.5 L664.5,543.5 L501.5,492.9 L501.5,492.9 Z" fill="#C7C7C7"></path>
                        <path d="M607.1,281.6 L639.8,133.2 L738.8,276.3 L607.1,281.6 L607.1,281.6 Z" fill="#CBCBCB"></path>
                        <path d="M607.1,281.6 L530.3,188 L639.8,133.2 L607.1,281.6 L607.1,281.6 Z" fill="#D8D8D8"></path>
                        <path d="M607.1,281.6 L489.8,295 L530.3,187.9 L607.1,281.6 L607.1,281.6 Z" fill="#E7E7E7"></path>
                        <path d="M607.1,281.6 L573.1,396.7 L489.8,295 L607.1,281.6 L607.1,281.6 Z" fill="#EBEBEB"></path>
                        <path d="M607.1,281.6 L672.7,446.5 L573.1,396.7 L607.1,281.6 L607.1,281.6 Z" fill="#E1E1E1"></path>
                        <path d="M607.1,281.6 L724.7,397.3 L672.7,446.5 L607.1,281.6 L607.1,281.6 Z" fill="#D5D5D5"></path>
                        <path d="M607.1,281.6 L738.8,276.3 L724.7,397.3 L607.1,281.6 L607.1,281.6 Z" fill="#CDCDCD"></path>
                        <path d="M484.2,53.4 L396.4,100.8 L323.6,35.1 L484.2,53.4 Z" fill="#D5D5D5"></path>
                        <path d="M484.2,53.4 L530.3,188 L396.4,100.8 L484.2,53.4 Z" fill="#CBCBCB"></path>
                        <path d="M492.5,60.2 L639.8,133.2 L530.3,188 L492.5,60.2 L492.5,60.2 Z" fill="#CBCBCB"></path>
                        <path d="M492.5,60.2 L672.7,51.4 L639.8,133.2 L492.5,60.2 L492.5,60.2 Z" fill="#D8D8D8"></path>
                        <path d="M509,750.2 L508.4,621.4 L547.2,704.1 L509,750.2 L509,750.2 Z" fill="#D7D7D7"></path>
                        <path d="M509,750.2 L444.7,623.3 L508.5,621.4 L509,750.2 L509,750.2 Z" fill="#DDDDDD"></path>
                        <path d="M509,750.2 L354.3,674.4 L444.7,623.3 L509,750.2 L509,750.2 Z" fill="#E6E6E6"></path>
                        <path d="M369.1,502.8 L433.6,474.8 L444.7,623.3 L369.1,502.8 L369.1,502.8 Z" fill="#D2D2D2"></path>
                        <path d="M369.1,502.8 L309.6,364.9 L433.6,474.9 L369.1,502.8 L369.1,502.8 Z" fill="#D5D5D5"></path>
                        <path d="M369.1,502.8 L237,428.1 L309.6,364.9 L369.1,502.8 L369.1,502.8 Z" fill="#E6E6E6"></path>
                        <path d="M369.1,502.8 L244.2,526.2 L237.1,428.1 L369.1,502.8 Z" fill="#EFEFEF"></path>
                        <path d="M369.1,502.8 L354.3,674.4 L244.2,526.2 L369.1,502.8 Z" fill="#EFEFEF"></path>
                        <path d="M369.1,502.8 L444.7,623.3 L354.3,674.4 L369.1,502.8 L369.1,502.8 Z" fill="#E0E0E0"></path>
                        <path d="M453.7,407.5 L489.8,295.1 L573.2,396.7 L453.7,407.5 L453.7,407.5 Z" fill="#CDCDCD"></path>
                        <path d="M453.7,407.5 L325.8,330.3 L489.8,295.1 L453.7,407.5 L453.7,407.5 Z" fill="#D8D8D8"></path>
                        <path d="M453.7,407.5 L309.6,364.9 L325.8,330.3 L453.7,407.5 L453.7,407.5 Z" fill="#EDEDED"></path>
                        <path d="M453.7,407.5 L433.6,474.8 L309.6,364.8 L453.7,407.5 L453.7,407.5 Z" fill="#EFEFEF"></path>
                        <path d="M453.7,407.5 L573.2,396.7 L433.6,474.8 L453.7,407.5 L453.7,407.5 Z" fill="#E1E1E1"></path>
                        <path d="M410.7,207.3 L396.4,100.8 L530.3,187.9 L410.7,207.3 L410.7,207.3 Z" fill="#D8D8D8"></path>
                        <path d="M410.7,207.3 L286.5,155.3 L396.4,100.8 L410.7,207.3 L410.7,207.3 Z" fill="#EBEBEB"></path>
                        <path d="M410.7,207.3 L325.8,330.2 L286.5,155.3 L410.7,207.3 L410.7,207.3 Z" fill="#F0F0F0"></path>
                        <path d="M410.7,207.3 L489.8,295 L325.8,330.2 L410.7,207.3 L410.7,207.3 Z" fill="#E7E7E7"></path>
                        <path d="M410.7,207.3 L530.3,187.9 L489.8,295 L410.7,207.3 L410.7,207.3 Z" fill="#D2D2D2"></path>
                        <path d="M189.5,654.8 L244.2,526.2 L354.3,674.5 L189.5,654.8 L189.5,654.8 Z" fill="#C6C6C6"></path>
                        <path d="M189.5,654.8 L171.9,553.3 L244.2,526.1 L189.5,654.8 L189.5,654.8 Z" fill="#D7D7D7"></path>
                        <path d="M189.5,654.8 L0.4,588.5 L171.9,553.3 L189.5,654.8 Z" fill="#E0E0E0"></path>
                        <path d="M206.3,182.3 L286.5,155.4 L325.8,330.3 L206.3,182.3 L206.3,182.3 Z" fill="#CACACA"></path>
                        <path d="M206.3,182.3 L196.9,86.6 L286.5,155.3 L206.3,182.3 L206.3,182.3 Z" fill="#D2D2D2"></path>
                        <path d="M218.9,289.9 L309.7,364.8 L237.1,428 L218.9,289.9 L218.9,289.9 Z" fill="#E6E6E6"></path>
                        <path d="M218.9,289.9 L325.8,330.2 L309.6,364.8 L218.9,289.9 L218.9,289.9 Z" fill="#CBCBCB"></path>
                        <path d="M196.9,86.6 L396.4,100.8 L286.5,155.3 L196.9,86.6 L196.9,86.6 Z" fill="#E6E6E6"></path>
                        <path d="M396.4,100.8 L196.9,86.6 L323.6,35.1 L396.4,100.8 Z" fill="#D8D8D8"></path>
                        <path d="M325.8,330.2 L218.9,289.9 L206.3,182.3 L325.8,330.2 L325.8,330.2 Z" fill="#D8D8D8"></path>
                        <path d="M530.3,188 L484.2,53.5 L492.6,60.3 L530.3,188 L530.3,188 Z" fill="#C1C1C1"></path>
                        <path d="M0.4,588.5 L189.6,654.8 L43.3,672.5 L0.4,588.5 L0.4,588.5 Z" fill="#EFEFEF"></path>
                    </g>
                    <path d="M627.4,1314.5 L699.5,1317.5 L727.7,1376.2 L627.4,1314.5 L627.4,1314.5 Z" id="Shape" fill="#D1D1D1"></path>
                    <path d="M2757.7,731.4 L2644.6,726.7 L2704.2,802.6 L2757.7,731.4 L2757.7,731.4 Z" id="Shape" fill="#E0E0E0"></path>
                    <path d="M2899.6,813.2 L2757.7,731.4 L2704.2,802.5 L2899.6,813.2 L2899.6,813.2 Z" id="Shape" fill="#C6C6C6"></path>
                    <path d="M1336.4,1314.5 L1208.6,1423.3 L1175.9,1307.9 L1336.4,1314.5 L1336.4,1314.5 Z" id="Shape" fill="#EBEBEB"></path>
                    <path d="M550,1346.3 L531.8,1273.1 L627.4,1314.5 L550,1346.3 L550,1346.3 Z" id="Shape" fill="#DBDBDB"></path>
                    <path d="M550,1346.3 L431.3,1314.5 L531.8,1273.1 L550,1346.3 L550,1346.3 Z" id="Shape" fill="#EBEBEB"></path>
                    <path d="M1175.9,1308 L1208.6,1423.4 L1117.3,1318.5 L1175.9,1308 L1175.9,1308 Z" id="Shape" fill="#C1C1C1"></path>
                    <path d="M987,1314.5 L1117.3,1318.4 L1040.6,1434.3 L987,1314.5 L987,1314.5 Z" id="Shape" fill="#EBEBEB"></path>
                    <path d="M1117.3,1318.4 L1208.6,1423.3 L1040.6,1434.3 L1117.3,1318.4 L1117.3,1318.4 Z" id="Shape" fill="#CFCFCF"></path>
                    <path d="M907,1511.2 L986.9,1314.5 L1040.5,1434.3 L907,1511.2 L907,1511.2 Z" id="Shape" fill="#DBDBDB"></path>
                    <g transform="translate(61.000000, 1314.000000)" id="Shape">
                        <path d="M796.1,5.4 L779.4,98.4 L925.9,0.5 L796.1,5.4 L796.1,5.4 Z" fill="#E0E0E0"></path>
                        <path d="M796.1,5.4 L666.7,62.2 L779.4,98.4 L796.1,5.4 L796.1,5.4 Z" fill="#D7D7D7"></path>
                        <path d="M846,197.2 L925.9,0.5 L779.4,98.4 L846,197.2 L846,197.2 Z" fill="#E6E6E6"></path>
                        <path d="M566.4,0.6 L541,81.4 L666.6,62.1 L566.4,0.6 L566.4,0.6 Z" fill="#DBDBDB"></path>
                        <path d="M566.4,0.6 L489,32.3 L541,81.5 L566.4,0.6 L566.4,0.6 Z" fill="#EBEBEB"></path>
                        <path d="M371.6,0.5 L389.5,82.1 L489.1,32.3 L371.6,0.5 L371.6,0.5 Z" fill="#C6C6C6"></path>
                        <path d="M371.6,0.5 L246.6,29.2 L389.5,82.1 L371.6,0.5 L371.6,0.5 Z" fill="#D2D2D2"></path>
                        <path d="M423.4,197.2 L489,32.3 L389.4,82.1 L423.4,197.2 L423.4,197.2 Z" fill="#E1E1E1"></path>
                        <path d="M423.4,197.2 L541,81.5 L489,32.3 L423.4,197.2 L423.4,197.2 Z" fill="#D5D5D5"></path>
                        <path d="M106.2,22.4 L125.9,113.9 L246.5,29.2 L106.2,22.4 L106.2,22.4 Z" fill="#EDEDED"></path>
                        <path d="M106.2,22.4 L42.4,44.3 L125.8,113.9 L106.2,22.4 L106.2,22.4 Z" fill="#E6E6E6"></path>
                        <path d="M270,71.3 L246.6,29.2 L126,113.9 L270,71.3 L270,71.3 Z" fill="#EFEFEF"></path>
                        <path d="M270,71.3 L389.5,82.1 L246.6,29.2 L270,71.3 L270,71.3 Z" fill="#E1E1E1"></path>
                        <path d="M0.8,197.2 L125.9,114 L42.5,44.4 L0.8,197.2 L0.8,197.2 Z" fill="#D7D7D7"></path>
                    </g>
                    <path d="M167.2,1336.4 L238.4,1284.8 L307.5,1343.2 L167.2,1336.4 Z" id="Shape" fill="#E6E6E6"></path>
                </g>
            </g>
        </g>
        <g id="Artboard-1" sketch:type="MSArtboardGroup"></g>
    </g>
</svg>