<svg xmlns="http://www.w3.org/2000/svg" width="1665" height="800" viewBox="0 0 1665 800"><path fill="#EA001C" d="M0 800v-800h1665v800z"/><path fill="#B60012" d="M90.133 199.889l21.017 181.44-111.15-78.271z"/><path fill="#C20013" d="M90.133 199.889l124.633 126.244-103.616 55.196z"/><path fill="#CC0014" d="M90.133 199.889l154.002-40.706-29.369 166.95z"/><path fill="#CF0014" d="M90.133 199.889l-45.031-199.889 199.033 159.183z"/><path fill="#BA0012" d="M90.133 199.889l-90.133-199.889h45.102z"/><path fill="#B60012" d="M90.133 199.889l-90.133 103.169v-303.058z"/><path fill="#C60013" d="M-66.759 422.687l159.7 33.245-92.941 59.469z"/><path fill="#D00014" d="M-66.759 422.687l177.909-41.358-18.209 74.603z"/><path fill="#D10014" d="M-66.759 422.687l66.759-119.629 111.15 78.271z"/><path fill="#C60013" d="M-66.759 422.687l66.759 92.714v-212.343zM56.211 614.866l164.228 56.164-97.06 228.97z"/><path fill="#D00014" d="M56.211 614.866l36.73-158.934 127.498 215.098z"/><path fill="#C30013" d="M56.211 614.866l-56.211-99.465 92.941-59.469z"/><path fill="#BA0012" d="M56.211 614.866l-56.211 285.134v-384.599zM56.211 614.866l67.168 285.134h-123.379z"/><path fill="#AB0011" d="M250 0l-5.865 159.183-199.033-159.183z"/><path fill="#BF0013" d="M250 0l178.012 67.244-183.877 91.939z"/><path fill="#D10014" d="M250 0l189.933 7.757-11.921 59.487z"/><path fill="#D20015" d="M250 0h181.595l8.338 7.757zM250 0h-204.898 386.493z"/><path fill="#AF0011" d="M375 250l-51.092 130.704-109.142-54.571z"/><path fill="#BA0012" d="M375 250l215.079 40.91-266.171 89.794z"/><path fill="#D50015" d="M375 250l53.012-182.756 162.067 223.666z"/><path fill="#C40013" d="M375 250l-130.865-90.817 183.877-91.939z"/><path fill="#B30011" d="M375 250l-160.234 76.133 29.369-166.95z"/><path fill="#AF0011" d="M250 500l-29.561 171.03-127.498-215.098z"/><path fill="#BD0012" d="M250 500l124.796 93.853-154.357 77.177z"/><path fill="#CC0014" d="M250 500l73.908-119.296 50.888 213.149z"/><path fill="#C70013" d="M250 500l-35.234-173.867 109.142 54.571z"/><path fill="#BB0012" d="M250 500l-138.85-118.671 103.616-55.196z"/><path fill="#B10011" d="M250 500l-157.059-44.068 18.209-74.603z"/><path fill="#C80014" d="M375 750l45.066-145.645 42.423 295.645z"/><path fill="#C40013" d="M375 750l-.204-156.147 45.27 10.502z"/><path fill="#BF0013" d="M375 750l-154.561-78.97 154.357-77.177z"/><path fill="#B00011" d="M375 750l-251.621 150 97.06-228.97z"/><path fill="#A60010" d="M375 750l87.489 150h-339.11z"/><path fill="#C10013" d="M418.512-181.123l21.421 188.88-8.338-7.757z"/><path fill="#C20013" d="M418.512-181.123l31.324 181.123-9.903 7.757z"/><path fill="#C30013" d="M418.512-181.123l13.083 181.123h18.241z"/><path fill="#AC0011" d="M618.188 73.787l-28.109 217.123-162.067-223.666z"/><path fill="#BD0012" d="M618.188 73.787l4.503 232.096-32.612-14.973z"/><path fill="#BF0013" d="M618.188 73.787l36.369 222.241-31.866 9.855z"/><path fill="#C30013" d="M618.188 73.787l132.521 82.109-96.152 140.132z"/><path fill="#CD0014" d="M618.188 73.787l45.253-73.787 87.268 155.896z"/><path fill="#C40013" d="M618.188 73.787l-168.352-73.787h213.605z"/><path fill="#AF0011" d="M618.188 73.787l-178.255-66.03 9.903-7.757z"/><path fill="#AD0011" d="M618.188 73.787l-190.176-6.543 11.921-59.487z"/><path fill="#B30011" d="M443.735 453.747l-68.939 140.106-50.888-213.149z"/><path fill="#B80012" d="M443.735 453.747l-23.669 150.608-45.27-10.502z"/><path fill="#BD0012" d="M443.735 453.747l139.243 115.097-162.912 35.511z"/><path fill="#CD0014" d="M443.735 453.747l178.956-147.864-39.713 262.961z"/><path fill="#D10014" d="M443.735 453.747l146.344-162.837 32.612 14.973z"/><path fill="#CF0014" d="M443.735 453.747l-119.827-73.043 266.171-89.794z"/><path fill="#B60012" d="M504.27 731.45l-41.781 168.55-42.423-295.645z"/><path fill="#BB0012" d="M504.27 731.45l177.395 168.55h-219.176z"/><path fill="#D10014" d="M504.27 731.45l188.151-46.41-10.756 214.96z"/><path fill="#D20015" d="M504.27 731.45l78.708-162.606 109.443 116.196z"/><path fill="#C70013" d="M504.27 731.45l-84.204-127.095 162.912-35.511z"/><path fill="#B60012" d="M750 0l.709 155.896-87.268-155.896z"/><path fill="#BF0013" d="M750 0l133.382 89.559-132.673 66.337z"/><path fill="#CD0014" d="M750 0l138.289 84.296-4.907 5.263zM750 0h108.46l29.829 84.296z"/><path fill="#CB0014" d="M750 0h-86.559 195.019z"/><path fill="#A80010" d="M875 250l-46.225 133.138-174.218-87.11z"/><path fill="#BA0012" d="M875 250l87.163 90.255-133.388 42.883z"/><path fill="#C80014" d="M875 250l8.382-160.441 78.781 250.696z"/><path fill="#C10013" d="M875 250l-124.291-94.104 132.673-66.337z"/><path fill="#B30011" d="M875 250l-220.443 46.028 96.152-140.132z"/><path fill="#AF0011" d="M750 500l-57.579 185.04-109.443-116.196z"/><path fill="#B90012" d="M750 500l118.079 97.211-175.658 87.829z"/><path fill="#CB0014" d="M750 500l78.775-116.862 39.304 214.073z"/><path fill="#C70013" d="M750 500l-95.443-203.972 174.218 87.11z"/><path fill="#B50012" d="M750 500l-127.309-194.117 31.866-9.855z"/><path fill="#B30011" d="M750 500l-167.022 68.844 39.713-262.961z"/><path fill="#D40015" d="M875 750l18.088-146.754 187.46 296.754z"/><path fill="#C10013" d="M875 750l-6.921-152.789 25.009 6.035z"/><path fill="#BE0013" d="M875 750l-182.579-64.96 175.658-87.829z"/><path fill="#AC0011" d="M875 750l-193.335 150 10.756-214.96zM875 750l205.548 150h-398.883z"/><path fill="#B60012" d="M942.779-68.218l-54.49 152.514-29.829-84.296z"/><path fill="#BA0012" d="M942.779-68.218l133.063 126.646-187.553 25.868z"/><path fill="#CD0014" d="M942.779-68.218l146.037 68.218-12.974 58.428z"/><path fill="#CF0014" d="M942.779-68.218l-84.319 68.218h230.356z"/><path fill="#B50012" d="M982.031 216.366l-19.868 123.889-78.781-250.696z"/><path fill="#BD0012" d="M982.031 216.366l128.786 146.728-148.654-22.839z"/><path fill="#CC0014" d="M982.031 216.366l190.343 88.571-61.557 58.157z"/><path fill="#D20015" d="M982.031 216.366l200.167-26.215-9.824 114.786z"/><path fill="#D40015" d="M982.031 216.366l93.811-157.938 106.356 131.723z"/><path fill="#C90014" d="M982.031 216.366l-93.742-132.07 187.553-25.868z"/><path fill="#B60012" d="M982.031 216.366l-98.649-126.807 4.907-5.263z"/><path fill="#B40012" d="M943.925 464.396l-75.846 132.815-39.304-214.073z"/><path fill="#B80012" d="M943.925 464.396l-50.837 138.85-25.009-6.035z"/><path fill="#BA0012" d="M943.925 464.396l150.233 41.912-201.07 96.938z"/><path fill="#CF0014" d="M943.925 464.396l166.892-101.302-16.659 143.214z"/><path fill="#D00014" d="M943.925 464.396l18.238-124.141 148.654 22.839z"/><path fill="#C10013" d="M943.925 464.396l-115.15-81.258 133.388-42.883z"/><path fill="#B10011" d="M1033.383 649.949l47.165 250.051-187.46-296.754z"/><path fill="#C40013" d="M1033.383 649.949l112.226 250.051h-65.061z"/><path fill="#CB0014" d="M1033.383 649.949l177.953 25.633-65.727 224.418z"/><path fill="#D10014" d="M1033.383 649.949l60.775-143.641 117.178 169.274z"/><path fill="#C60013" d="M1033.383 649.949l-140.295-46.703 201.07-96.938z"/><path fill="#AD0011" d="M1250 0l-67.802 190.151-106.356-131.723z"/><path fill="#B90012" d="M1250 0l116.778 97.861-184.58 92.29z"/><path fill="#CB0014" d="M1250 0h70.843l45.935 97.861z"/><path fill="#C70013" d="M1250 0h-161.184 232.027z"/><path fill="#AF0011" d="M1250 0l-174.158 58.428 12.974-58.428z"/><path fill="#AB0011" d="M1375 250l-84.807 113.847-117.819-58.91z"/><path fill="#B60012" d="M1375 250l80.354 21.388-165.161 92.459z"/><path fill="#C70013" d="M1375 250l67.214-154.343 13.14 175.731z"/><path fill="#C60013" d="M1375 250l-8.222-152.139 75.436-2.204z"/><path fill="#BE0013" d="M1375 250l-192.802-59.849 184.58-92.29z"/><path fill="#AC0011" d="M1375 250l-202.626 54.937 9.824-114.786z"/><path fill="#B00011" d="M1250 500l-38.664 175.582-117.178-169.274z"/><path fill="#BB0012" d="M1250 500l90.909 110.795-129.573 64.787z"/><path fill="#C80014" d="M1250 500l138.822-15.903-47.913 126.698z"/><path fill="#CD0014" d="M1250 500l40.193-136.153 98.629 120.25z"/><path fill="#C30013" d="M1250 500l-77.626-195.063 117.819 58.91z"/><path fill="#B80012" d="M1250 500l-139.183-136.906 61.557-58.157z"/><path fill="#B10011" d="M1250 500l-155.842 6.308 16.659-143.214z"/><path fill="#D90015" d="M1375 750l250 48.968v101.032zM1375 750l-34.091-139.205 284.091 188.173z"/><path fill="#BB0012" d="M1375 750l-163.664-74.418 129.573-64.787z"/><path fill="#AF0011" d="M1375 750l-229.391 150 65.727-224.418z"/><path fill="#A80010" d="M1375 750l250 150h-479.391z"/><path fill="#BA0012" d="M1366.104-54.499l.674 152.36-45.935-97.861z"/><path fill="#BF0013" d="M1366.104-54.499l76.11 150.156-75.436 2.204z"/><path fill="#C70013" d="M1366.104-54.499l183.085 89.675-106.975 60.481z"/><path fill="#D20015" d="M1366.104-54.499l188.08 54.499-4.995 35.176zM1366.104-54.499l-45.261 54.499h233.341z"/><path fill="#B60012" d="M1531.635 238.288l-76.281 33.1-13.14-175.731z"/><path fill="#B80012" d="M1531.635 238.288l70.391 163.222-146.672-130.122z"/><path fill="#C70013" d="M1531.635 238.288l169.125 80.842-98.734 82.38z"/><path fill="#D10014" d="M1531.635 238.288l173.923-59.817-4.798 140.659zM1531.635 238.288l17.554-203.112 156.369 143.295z"/><path fill="#C10013" d="M1531.635 238.288l-89.421-142.631 106.975-60.481z"/><path fill="#B10011" d="M1431.579 351.069l-42.757 133.028-98.629-120.25z"/><path fill="#BB0012" d="M1431.579 351.069l151.291 91.397-194.048 41.631z"/><path fill="#CF0014" d="M1431.579 351.069l170.447 50.441-19.156 40.956z"/><path fill="#D10014" d="M1431.579 351.069l23.775-79.681 146.672 130.122z"/><path fill="#C20013" d="M1431.579 351.069l-141.386 12.778 165.161-92.459z"/><path fill="#B10011" d="M1482.384 587.879l142.616 211.089-284.091-188.173z"/><path fill="#CD0014" d="M1482.384 587.879l184.358 110-41.742 101.089z"/><path fill="#D20015" d="M1482.384 587.879l100.486-145.413 83.872 255.413z"/><path fill="#C90014" d="M1482.384 587.879l-93.562-103.782 194.048-41.631z"/><path fill="#B60012" d="M1482.384 587.879l-141.475 22.916 47.913-126.698z"/><path fill="#AB0011" d="M1750 0l-44.442 178.471-156.369-143.295z"/><path fill="#BA0012" d="M1750 0l15 148.75-59.442 29.721z"/><path fill="#C10013" d="M1750 0h15v148.75zM1750 0h-195.816 210.816z"/><path fill="#AB0011" d="M1750 0l-200.811 35.176 4.995-35.176z"/><path fill="#AD0011" d="M1875 250l-110 101.25-64.24-32.12z"/><path fill="#B40012" d="M1875 250l-110-101.25v202.5zM1875 250l-169.442-71.529 59.442-29.721z"/><path fill="#AD0011" d="M1875 250l-174.24 69.13 4.798-140.659z"/><path fill="#AF0011" d="M1750 500l-83.258 197.879-83.872-255.413z"/><path fill="#B60012" d="M1750 500l15 148.75-98.258 49.129z"/><path fill="#C10013" d="M1750 500l15-148.75v297.5zM1750 500l-49.24-180.87 64.24 32.12z"/><path fill="#BA0012" d="M1750 500l-147.974-98.49 98.734-82.38z"/><path fill="#B00011" d="M1750 500l-167.13-57.534 19.156-40.956z"/><path fill="#A60010" d="M1875 750l-250 150v-101.032zM1875 750l-110 150h-140z"/><path fill="#B40012" d="M1875 750l-110-101.25v251.25zM1875 750l-208.258-52.121 98.258-49.129z"/><path fill="#a01" d="M1875 750l-250 48.968 41.742-101.089z"/></svg>