<?xml version="1.0" encoding="utf-8"?>
<!-- Generator: Adobe Illustrator 18.0.0, SVG Export Plug-In . SVG Version: 6.00 Build 0)  -->
<!DOCTYPE svg PUBLIC "-//W3C//DTD SVG 1.1//EN" "http://www.w3.org/Graphics/SVG/1.1/DTD/svg11.dtd">
<svg version="1.1" id="Layer_1" xmlns="http://www.w3.org/2000/svg" xmlns:xlink="http://www.w3.org/1999/xlink" x="0px" y="0px"
	 viewBox="0 349 612 88" enable-background="new 0 349 612 88" xml:space="preserve">
<path fill="#231F20" d="M52.4,377H34.2v14.6h13.6v3.7H34.2v20.1h-4.4v-42.1h22.6L52.4,377L52.4,377z"/>
<path fill="#231F20" d="M77.9,373.3c12.1,0,12.7,13.8,12.7,21.4c0,5.5,0.4,21.4-12.7,21.4c-12.8,0-12.7-15.6-12.7-21.4
	C65.2,377.5,70.9,373.3,77.9,373.3z M86.3,394.8c0-3.8,0.6-17.8-8.4-17.8c-9.2,0-8.4,15.4-8.4,17.8c0,4.7-0.2,17.8,8.4,17.8
	C82.2,412.6,86.3,409.8,86.3,394.8z"/>
<path fill="#231F20" d="M106.7,373.3h11c10.5,0,11.5,9.5,11.5,11.9c0,4.3-1.6,8.3-7.5,11.7l11.4,18.5h-5.4l-10.3-17.5
	c-2.1,0.1-4.2,0.1-6.3,0.1v17.4h-4.4C106.7,415.5,106.7,373.3,106.7,373.3z M115.3,394.3c5.9,0,9.4-3,9.4-9.2c0-5.6-2.3-8-9.3-8
	h-4.3v17.3H115.3z"/>
<path fill="#231F20" d="M170.3,373.3h4.3v42.1h-4.4v-32.1h-0.1l-8.7,20.6l-8.6-20.6l-0.1,0.1v31.9h-4.4v-42.1h4.3l8.9,21
	L170.3,373.3z"/>
<path fill="#231F20" d="M210.6,377h-5.7v34.7h5.7v3.7h-15.8v-3.7h5.7V377h-5.7v-3.7h15.8V377z"/>
<path fill="#231F20" d="M231.6,373.8h10.7c8.1,0,13.5,4.6,13.5,21c0,16.1-5,21-14.2,21h-10V373.8z M236,412.1h5.4
	c6.1,0,10.1-1.7,10.1-17.3c0-16.1-4.6-17.3-10.2-17.3H236V412.1z"/>
<path fill="#231F20" d="M297.3,415.5h-4.4l-3.4-11.4h-11.8l-3.4,11.4h-4.4l13.6-41.9L297.3,415.5z M278.7,400.7h9.9l-5-15.6
	L278.7,400.7z"/>
<path fill="#231F20" d="M314.3,415.5v-41.6h8.7c4.8,0,13.1,0.6,13.1,10.5c0,4-2.1,7.1-5.5,9c4.7,2.3,7.3,5.4,7.3,10.8
	c0,6.1-4.4,11.3-11.7,11.3L314.3,415.5L314.3,415.5z M318.6,392h5c3.8,0,8.1-2.9,8.1-7.8c0-6.9-5.8-6.7-8.5-6.7h-4.7V392z
	 M325.9,411.8c3.8,0,7.6-2.3,7.6-7.5c0-4.6-2.9-8.7-9.5-8.7h-5.4v16.1L325.9,411.8L325.9,411.8z"/>
<path fill="#231F20" d="M361.2,411.8h18v3.6h-22.4v-41.6h4.3L361.2,411.8L361.2,411.8z"/>
<path fill="#231F20" d="M418.8,377.5h-17.3v14.8h12.4v3.6h-12.4v15.9h17.7v3.6h-22v-41.6h21.6V377.5z"/>
<path fill="#231F20" d="M445.7,412.6h18.2v2.9h-21v-41.6h2.7V412.6z"/>
<path fill="#231F20" d="M507.5,415.5h-2.9l-3.6-12.1h-13.6l-3.7,12.1h-2.9l13.3-41.4L507.5,415.5z M488,401.1h12.5l-6.2-20.1
	L488,401.1z"/>
<path fill="#231F20" d="M523.8,415.5v-41.6h10.1c6.1,0,10.3,3.8,10.3,10.1c0,4.5-2.6,7.6-6.6,9.4c5.4,1.6,8.5,5.4,8.5,11
	c0,5.9-3.8,11-10.4,11L523.8,415.5L523.8,415.5z M530.7,392.6c7.1,0,10.8-3.4,10.8-8.8c0-4.4-1.9-7.7-8.9-7.7h-6.2v16.4L530.7,392.6
	L530.7,392.6z M535.2,413.1c3.4,0,8.2-2.5,8.2-8.6c0-5-3.5-9.6-9.7-9.6h-7.2v18.2C526.6,413.1,535.2,413.1,535.2,413.1z"/>
<path fill="#231F20" d="M584.5,380c-2.6-2.2-5.5-4.4-9.1-4.4c-4.2,0-7.6,2.9-7.6,7.2c0,3.2,1.5,5.4,6.5,8.5l3.4,2
	c6.5,4,9.5,6.3,9.5,11.4c0,7.1-4.7,11.5-11.7,11.5c-4.9,0-8.7-2.3-11.7-6.1l2-1.7c2.2,3.1,5.6,5.5,9.6,5.5c4.8,0,8.9-3.6,8.9-8.5
	c0-3.9-0.5-5.4-8.1-9.9l-3.8-2.3c-4-2.3-7.5-5.1-7.5-10.1c0-6.2,4.7-9.8,10.7-9.8c3.9,0,7.7,2,10.5,4.7L584.5,380z"/>
</svg>
